<svg width="1187" height="1174" xmlns="http://www.w3.org/2000/svg" xmlns:xlink="http://www.w3.org/1999/xlink" xml:space="preserve" overflow="hidden"><defs><clipPath id="clip0"><rect x="1613" y="651" width="1187" height="1174"/></clipPath></defs><g clip-path="url(#clip0)" transform="translate(-1613 -651)"><path d="M1615.5 1238C1615.5 915.19 1877.41 653.5 2200.5 653.5 2523.59 653.5 2785.5 915.19 2785.5 1238 2785.5 1560.81 2523.59 1822.5 2200.5 1822.5 1877.41 1822.5 1615.5 1560.81 1615.5 1238Z" stroke="#507E32" stroke-width="4.58333" stroke-miterlimit="8" fill="#3EAF7C" fill-rule="evenodd"/><path d="M2388.36 841.677C2460.3 875.702 2521.64 928.629 2565.79 994.793L2200.5 1238Z" stroke="#000000" stroke-width="4.58333" stroke-miterlimit="8" fill-rule="evenodd"/><path d="M2200 1232.84 2784.69 1232.84 2784.69 1243.16 2200 1243.16ZM2200 1253.47C2191.46 1253.47 2184.53 1246.54 2184.53 1238 2184.53 1229.46 2191.46 1222.53 2200 1222.53 2208.54 1222.53 2215.47 1229.46 2215.47 1238 2215.47 1246.54 2208.54 1253.47 2200 1253.47ZM2784.69 1222.53C2793.24 1222.53 2800.16 1229.46 2800.16 1238 2800.16 1246.54 2793.24 1253.47 2784.69 1253.47 2776.15 1253.47 2769.22 1246.54 2769.22 1238 2769.22 1229.46 2776.15 1222.53 2784.69 1222.53Z"/><path d="M2495.56 1261.53 2497.79 1261.53C2497.63 1264.13 2497.55 1267.72 2497.55 1272.31L2497.55 1306.92C2497.55 1308.49 2497.64 1309.67 2497.81 1310.47 2497.99 1311.27 2498.3 1311.92 2498.74 1312.42 2499.19 1312.92 2499.83 1313.31 2500.67 1313.59 2501.51 1313.87 2502.56 1314.09 2503.83 1314.24 2505.1 1314.39 2506.78 1314.49 2508.86 1314.54L2508.86 1317.5 2478.91 1317.5 2478.91 1314.54C2481.91 1314.41 2484.05 1314.23 2485.33 1314 2486.61 1313.77 2487.59 1313.42 2488.27 1312.96 2488.94 1312.5 2489.44 1311.85 2489.75 1311.02 2490.06 1310.18 2490.21 1308.81 2490.21 1306.92L2490.21 1274.06C2490.21 1272.98 2490.02 1272.19 2489.65 1271.69 2489.27 1271.19 2488.71 1270.94 2487.98 1270.94 2487.12 1270.94 2485.89 1271.38 2484.3 1272.27 2482.7 1273.16 2480.73 1274.39 2478.38 1275.96L2476.6 1272.84Z" fill-rule="evenodd"/><text fill="#000000" fill-opacity="0" font-family="Arial,Arial_MSFontService,sans-serif" font-size="55.9683" x="2476.6" y="1310.51">1</text><path d="M2418.33 1118.93C2420.04 1118.93 2421.38 1119.49 2422.37 1120.61 2423.35 1121.73 2423.84 1123.2 2423.84 1125.01 2423.84 1126.36 2423.59 1127.75 2423.07 1129.18L2423.6 1129.39C2426.25 1125.79 2428.8 1123.16 2431.24 1121.48 2433.69 1119.81 2436.17 1118.97 2438.68 1118.97 2440.65 1118.97 2442.3 1119.12 2443.62 1119.42L2441.68 1128.5 2437.5 1128.5C2437.34 1127.36 2437.11 1126.48 2436.81 1125.86 2436.52 1125.24 2436.17 1124.81 2435.76 1124.56 2435.35 1124.32 2434.84 1124.2 2434.22 1124.2 2433.25 1124.2 2432.19 1124.62 2431.04 1125.46 2429.89 1126.29 2428.6 1127.6 2427.17 1129.39 2425.74 1131.17 2424.59 1132.89 2423.74 1134.53 2422.89 1136.18 2422.18 1138.28 2421.62 1140.82L2417.77 1158.36 2410.75 1158.36 2416.63 1132.67C2417.01 1131.05 2417.25 1129.79 2417.36 1128.9 2417.47 1128.01 2417.52 1127.27 2417.52 1126.67 2417.52 1125.59 2417.35 1124.81 2417 1124.32 2416.64 1123.84 2416.09 1123.59 2415.33 1123.59 2414.5 1123.59 2413.61 1123.94 2412.68 1124.63 2411.75 1125.31 2410.47 1126.56 2408.85 1128.37L2406.54 1126.1C2409.03 1123.51 2411.11 1121.67 2412.78 1120.57 2414.46 1119.48 2416.31 1118.93 2418.33 1118.93Z" fill-rule="evenodd"/><text fill="#000000" fill-opacity="0" font-family="Arial,Arial_MSFontService,sans-serif" font-size="39.4331" x="2406.54" y="1153.44">𝑟</text><path d="M2313.34 1097.24C2312.07 1103.1 2311.44 1108.03 2311.44 1112.03 2311.44 1115.06 2311.89 1117.28 2312.81 1118.7 2313.73 1120.12 2315.22 1120.83 2317.27 1120.83 2320.3 1120.83 2323.17 1118.79 2325.88 1114.73 2328.6 1110.66 2330.9 1104.83 2332.79 1097.24ZM2329.96 1069.92C2326.8 1069.92 2323.87 1071.92 2321.18 1075.92 2318.49 1079.92 2316.2 1085.65 2314.31 1093.1L2333.73 1093.1C2335 1087.4 2335.63 1082.5 2335.63 1078.39 2335.63 1075.56 2335.17 1073.44 2334.25 1072.03 2333.33 1070.63 2331.9 1069.92 2329.96 1069.92ZM2330.44 1066.64C2338.28 1066.64 2342.2 1071.61 2342.2 1081.55 2342.2 1084.36 2341.88 1087.72 2341.24 1091.63 2340.61 1095.53 2339.6 1099.51 2338.22 1103.56 2336.85 1107.61 2335.1 1111.2 2333 1114.32 2330.89 1117.44 2328.46 1119.85 2325.7 1121.55 2322.95 1123.26 2319.97 1124.11 2316.78 1124.11 2312.76 1124.11 2309.76 1122.88 2307.79 1120.42 2305.82 1117.96 2304.83 1114.27 2304.83 1109.36 2304.83 1106.68 2305.13 1103.39 2305.72 1099.47 2306.32 1095.55 2307.29 1091.54 2308.66 1087.45 2310.02 1083.36 2311.78 1079.72 2313.93 1076.55 2316.08 1073.37 2318.55 1070.93 2321.34 1069.21 2324.14 1067.5 2327.17 1066.64 2330.44 1066.64Z" fill="#FFFFFF" fill-rule="evenodd"/><text fill="#000000" fill-opacity="0" font-family="Arial,Arial_MSFontService,sans-serif" font-size="57.4678" x="2304.83" y="1116.92">𝜃</text></g></svg>