<svg width="1365" height="982" xmlns="http://www.w3.org/2000/svg" xmlns:xlink="http://www.w3.org/1999/xlink" xml:space="preserve" overflow="hidden"><defs><clipPath id="clip0"><rect x="1517" y="747" width="1365" height="982"/></clipPath></defs><g clip-path="url(#clip0)" transform="translate(-1517 -747)"><path d="M1628.5 1238C1628.5 968.209 1846.98 749.5 2116.5 749.5 2386.01 749.5 2604.5 968.209 2604.5 1238 2604.5 1507.79 2386.01 1726.5 2116.5 1726.5 1846.98 1726.5 1628.5 1507.79 1628.5 1238Z" stroke="#2F528F" stroke-width="4.58333" stroke-miterlimit="8" fill="#4472C4" fill-rule="evenodd"/><path d="M2113.71 1324.47C2111.41 1325.47 2109.87 1327.52 2109.09 1330.61 2108.32 1333.7 2108.24 1337.44 2108.85 1341.83 2109.46 1346.22 2110.44 1349.96 2111.79 1353.06 2112.58 1354.87 2113.43 1356.1 2114.35 1356.76 2115.27 1357.42 2116.29 1357.51 2117.41 1357.02 2119.04 1356.31 2120.36 1354.79 2121.36 1352.45 2122.36 1350.12 2122.91 1347.64 2123.02 1345.04 2123.12 1342.43 2122.77 1339.08 2121.95 1334.98L2121.65 1333.47C2121.25 1331.47 2120.65 1329.55 2119.85 1327.72 2119.14 1326.08 2118.29 1324.98 2117.31 1324.4 2116.32 1323.83 2115.12 1323.85 2113.71 1324.47ZM2146.94 1305.41C2148.85 1304.58 2150.51 1304.19 2151.93 1304.23 2153.35 1304.28 2154.62 1304.64 2155.74 1305.31 2156.86 1305.99 2157.96 1306.99 2159.03 1308.32 2159.9 1309.36 2161.22 1311.28 2162.99 1314.07 2165.89 1318.61 2168.63 1323.12 2171.22 1327.59 2172.26 1322.46 2172.7 1317.7 2172.54 1313.32 2172.39 1308.93 2171.67 1305.27 2170.39 1302.32 2169.98 1301.38 2169.45 1300.76 2168.79 1300.47 2168.13 1300.18 2167.24 1300.26 2166.1 1300.69L2165.55 1298.01 2176.03 1293.45 2178.4 1295.34C2178.65 1297.27 2178.78 1299.67 2178.8 1302.55 2178.82 1306.79 2178.49 1311.69 2177.82 1317.25 2177.2 1322.27 2176.37 1327.37 2175.33 1332.57 2174.11 1338.64 2172.93 1343.62 2171.77 1347.53 2170.61 1351.44 2169.45 1354.46 2168.28 1356.58 2167.35 1358.23 2166.34 1359.54 2165.27 1360.53 2164.19 1361.51 2162.95 1362.31 2161.54 1362.92 2159.7 1363.72 2157.85 1364.2 2155.98 1364.37L2154.18 1355.16 2158.08 1353.46C2158.56 1354.49 2159.05 1355.2 2159.55 1355.57 2160.05 1355.94 2160.67 1355.96 2161.42 1355.64 2162.01 1355.38 2162.52 1355.03 2162.95 1354.6 2163.38 1354.16 2163.86 1353.46 2164.38 1352.49 2164.9 1351.53 2165.46 1350.09 2166.05 1348.16 2166.65 1346.24 2167.27 1343.96 2167.91 1341.32 2166.1 1338.51 2163.92 1335.23 2161.35 1331.47 2158.79 1327.71 2156.4 1324.31 2154.2 1321.28 2151.99 1318.24 2150.46 1316.21 2149.6 1315.17 2148.73 1314.13 2148.03 1313.43 2147.48 1313.06 2146.94 1312.69 2146.5 1312.49 2146.16 1312.45 2145.81 1312.4 2145.49 1312.45 2145.2 1312.58 2144.58 1312.85 2144.12 1313.35 2143.82 1314.08 2143.52 1314.82 2143.3 1316.18 2143.17 1318.19L2139.11 1318.1C2139.42 1314.87 2140.2 1312.21 2141.47 1310.11 2142.74 1308.01 2144.56 1306.44 2146.94 1305.41ZM2111.58 1320.8C2115.27 1319.19 2118.81 1318.71 2122.19 1319.36L2124.63 1315.12 2129.05 1313.9 2134.02 1341.79C2134.33 1343.51 2134.76 1345.01 2135.31 1346.27 2135.67 1347.09 2136.08 1347.66 2136.54 1347.99 2137.01 1348.32 2137.58 1348.33 2138.25 1348.04 2139.02 1347.71 2139.69 1347 2140.28 1345.92 2140.87 1344.84 2141.47 1343.36 2142.06 1341.48L2145.9 1342.99C2144.43 1346.72 2142.97 1349.49 2141.51 1351.28 2140.06 1353.08 2138.29 1354.43 2136.21 1355.34 2134.13 1356.24 2132.23 1356.39 2130.51 1355.76 2128.8 1355.14 2127.53 1353.89 2126.71 1352 2126.44 1351.38 2126.26 1350.76 2126.16 1350.12L2125.61 1350.27C2124.72 1353.19 2123.87 1355.47 2123.04 1357.12 2122.2 1358.76 2121.18 1360.18 2119.97 1361.39 2118.75 1362.6 2117.26 1363.59 2115.47 1364.36 2112.5 1365.66 2109.81 1365.63 2107.39 1364.28 2104.98 1362.93 2102.93 1360.32 2101.25 1356.45 2099.79 1353.11 2098.83 1349.58 2098.36 1345.87 2097.89 1342.15 2098.04 1338.7 2098.81 1335.53 2099.58 1332.35 2101.03 1329.48 2103.17 1326.91 2105.31 1324.34 2108.11 1322.31 2111.58 1320.8ZM2059.12 1343.63C2061.18 1342.73 2063.07 1342.59 2064.8 1343.21 2066.53 1343.83 2067.8 1345.08 2068.62 1346.96 2068.91 1347.63 2069.14 1348.53 2069.31 1349.67L2069.66 1349.65C2070.47 1345.82 2071.68 1342.65 2073.3 1340.15 2074.92 1337.65 2077.12 1335.79 2079.9 1334.59 2081.53 1333.87 2083.37 1333.35 2085.41 1333.03L2087.56 1343.98 2080.91 1346.87C2080.19 1345.21 2079.51 1344.14 2078.87 1343.65 2078.23 1343.16 2077.48 1343.11 2076.61 1343.49 2075.94 1343.78 2075.31 1344.33 2074.72 1345.15 2074.14 1345.96 2073.59 1347.29 2073.08 1349.13 2072.57 1350.98 2072.31 1352.64 2072.29 1354.12 2072.27 1355.6 2072.47 1357.4 2072.89 1359.51L2076.99 1380.4 2066.32 1385.05 2061.06 1356.62C2060.74 1354.84 2060.39 1353.54 2060.02 1352.69 2059.67 1351.88 2059.25 1351.3 2058.79 1350.98 2058.32 1350.65 2057.75 1350.63 2057.08 1350.92 2056.32 1351.26 2055.64 1351.96 2055.05 1353.05 2054.46 1354.13 2053.86 1355.61 2053.27 1357.49L2049.43 1355.98C2050.81 1352.37 2052.23 1349.65 2053.71 1347.79 2055.19 1345.94 2056.99 1344.55 2059.12 1343.63Z" fill-rule="evenodd"/><text fill="#000000" fill-opacity="0" font-family="Arial,Arial_MSFontService,sans-serif" font-size="91.5919" x="2049.43" y="1373.6">𝒓𝒂𝒚</text><path d="M2158.53 1272.27 2171.36 1276.27 2172.3 1278.43 2166.48 1290.55 2163.54 1289.18 2167.24 1281.43 2152.08 1288.03 2144.57 1291.29 2139.28 1293.6 2129.78 1297.73 2126.46 1299.17 2116.98 1303.3 2113.65 1304.75 2104.17 1308.88 2100.83 1310.33 2091.35 1314.46 2088.01 1315.91 2078.53 1320.03 2075.19 1321.49 2065.71 1325.61 2062.37 1327.07 2052.9 1331.19 2040.08 1336.77 2038.56 1333.28 2051.37 1327.7 2060.85 1323.57 2064.19 1322.12 2073.67 1317.99 2077.01 1316.54 2086.49 1312.42 2089.83 1310.96 2099.31 1306.84 2102.65 1305.39 2112.12 1301.26 2115.46 1299.81 2124.94 1295.68 2128.26 1294.24 2137.76 1290.1 2143.05 1287.8 2150.56 1284.53 2165.72 1277.93 2157.53 1275.36Z" fill-rule="evenodd"/><path d="M2.63095-6.35167 804.155 325.65 798.893 338.354-2.63095 6.35167ZM-7.89284 19.055C-18.4166 14.6959-23.4141 2.63095-19.055-7.89284-14.6959-18.4166-2.63095-23.4141 7.89284-19.055 18.4166-14.6959 23.4141-2.63095 19.055 7.89284 14.6959 18.4166 2.63095 23.4141-7.89284 19.055ZM803.064 310.316 833.281 345.156 787.279 348.426Z" transform="matrix(1 0 0 -1 1771 1583.16)"/><path d="M2635.29 1118.43C2637.34 1117.54 2639.24 1117.4 2640.96 1118.02 2642.69 1118.64 2643.96 1119.89 2644.78 1121.78 2645.05 1122.4 2645.24 1123.02 2645.34 1123.66L2645.84 1123.79C2646.91 1119.88 2648.2 1116.8 2649.71 1114.55 2651.22 1112.3 2653.38 1110.57 2656.18 1109.35 2658.73 1108.25 2661.04 1108.09 2663.12 1108.9 2665.19 1109.71 2666.77 1111.35 2667.84 1113.83 2668.19 1114.62 2668.54 1115.65 2668.89 1116.91 2669.25 1118.17 2669.52 1119.3 2669.69 1120.32L2671.8 1133.19C2672.1 1135.03 2672.52 1136.57 2673.05 1137.81 2673.47 1138.78 2673.93 1139.38 2674.41 1139.61 2674.89 1139.84 2675.43 1139.83 2676.03 1139.57 2676.75 1139.26 2677.4 1138.57 2678 1137.5 2678.59 1136.43 2679.2 1134.94 2679.81 1133.02L2683.65 1134.53C2682.3 1138.07 2680.89 1140.77 2679.42 1142.65 2677.95 1144.52 2676.07 1145.96 2673.76 1146.96 2671.13 1148.1 2668.93 1148.29 2667.15 1147.52 2665.37 1146.74 2663.93 1145.09 2662.83 1142.56 2662.05 1140.76 2661.4 1138.28 2660.89 1135.15L2659.84 1128.26C2659.58 1126.5 2659.25 1124.77 2658.88 1123.09 2658.5 1121.42 2658.1 1120.08 2657.67 1119.09 2657.18 1117.98 2656.59 1117.25 2655.88 1116.91 2655.17 1116.57 2654.39 1116.59 2653.52 1116.96 2652.3 1117.49 2651.23 1118.81 2650.29 1120.93 2649.36 1123.04 2648.76 1125.1 2648.52 1127.11 2648.27 1129.12 2648.43 1131.53 2649.01 1134.34L2653.13 1155.22 2642.47 1159.86 2637.22 1131.43C2636.89 1129.65 2636.55 1128.35 2636.18 1127.5 2635.83 1126.69 2635.41 1126.11 2634.95 1125.79 2634.48 1125.46 2633.91 1125.44 2633.25 1125.73 2632.48 1126.06 2631.8 1126.77 2631.21 1127.85 2630.62 1128.93 2630.02 1130.42 2629.43 1132.3L2625.59 1130.78C2626.97 1127.18 2628.4 1124.45 2629.87 1122.6 2631.35 1120.75 2633.16 1119.36 2635.29 1118.43Z" fill-rule="evenodd"/><text fill="#000000" fill-opacity="0" font-family="Arial,Arial_MSFontService,sans-serif" font-size="51.4662" x="2625.59" y="1153.42">𝒏</text><path d="M2693.8 1111.06C2696.47 1109.9 2698.82 1109.31 2700.82 1109.29 2702.83 1109.27 2704.48 1109.72 2705.77 1110.62 2707.06 1111.52 2708.06 1112.79 2708.77 1114.43 2709.4 1115.86 2709.71 1117.32 2709.71 1118.79 2709.71 1120.26 2709.4 1122.08 2708.76 1124.24 2708.13 1126.4 2706.89 1129.63 2705.04 1133.94 2704.47 1135.27 2703.84 1136.97 2703.15 1139.04 2702.45 1141.1 2701.95 1142.83 2701.62 1144.23L2701.74 1144.5 2711.44 1140.29C2712.62 1139.77 2713.47 1139.3 2713.97 1138.88 2714.48 1138.45 2714.81 1137.95 2714.96 1137.38 2715.11 1136.8 2715.11 1136.04 2714.96 1135.09L2718.1 1133.72 2721.72 1143.77 2696.7 1154.65 2695.92 1152.85C2695.92 1149.01 2696.98 1143.62 2699.11 1136.65 2700.07 1133.48 2700.74 1130.93 2701.12 1128.99 2701.5 1127.05 2701.65 1125.3 2701.59 1123.75 2701.52 1122.2 2701.18 1120.71 2700.56 1119.29 2699.69 1117.29 2698.56 1115.91 2697.17 1115.16 2695.79 1114.41 2694.32 1114.38 2692.77 1115.05 2689.8 1116.34 2688.83 1119.31 2689.85 1123.95L2684.93 1126.09 2682.13 1119.64C2684.58 1117.15 2686.63 1115.31 2688.28 1114.14 2689.94 1112.97 2691.78 1111.94 2693.8 1111.06Z" fill-rule="evenodd"/><text fill="#000000" fill-opacity="0" font-family="Arial,Arial_MSFontService,sans-serif" font-size="45.3602" x="2682.13" y="1148.98">𝟐</text><path d="M2687.36 1067.71 2700.19 1071.72 2701.13 1073.88 2695.3 1086 2692.37 1084.62 2696.07 1076.87 2680.9 1083.47 2673.39 1086.73 2666.78 1089.61 2658.6 1093.16 2652.65 1095.74 2644.48 1099.3 2638.51 1101.89 2630.35 1105.44 2616.21 1111.59 2614.69 1108.09 2628.83 1101.94 2636.99 1098.4 2642.96 1095.81 2651.13 1092.25 2657.08 1089.67 2665.26 1086.11 2671.88 1083.23 2679.38 1079.97 2694.55 1073.38 2686.36 1070.8Z" fill-rule="evenodd"/><path d="M2.63095-6.35167 206.49 78.0894 201.228 90.7927-2.63095 6.35167ZM-7.89283 19.055C-18.4166 14.6959-23.4141 2.63096-19.055-7.89283-14.6959-18.4166-2.63096-23.4141 7.89283-19.055 18.4166-14.6959 23.4141-2.63096 19.055 7.89283 14.6959 18.4166 2.63096 23.4141-7.89283 19.055ZM205.4 62.7551 235.617 97.5958 189.614 100.865Z" transform="matrix(1 0 0 -1 2604 1238.6)"/><path d="M2.63094-6.35167 182.13 67.9992 176.868 80.7025-2.63094 6.35167ZM181.041 52.6649 211.258 87.5056 165.255 90.7749Z" transform="matrix(-1 0 0 1 1771.26 1583)"/><path d="M1592.65 1559.35C1594.7 1558.45 1596.6 1558.32 1598.32 1558.94 1600.05 1559.55 1601.32 1560.81 1602.14 1562.69 1602.41 1563.31 1602.6 1563.94 1602.7 1564.57L1603.2 1564.71C1604.27 1560.79 1605.56 1557.71 1607.07 1555.47 1608.58 1553.22 1610.74 1551.49 1613.54 1550.27 1616.09 1549.16 1618.4 1549.01 1620.48 1549.81 1622.55 1550.62 1624.13 1552.26 1625.2 1554.74 1625.55 1555.53 1625.9 1556.56 1626.25 1557.82 1626.61 1559.08 1626.88 1560.22 1627.05 1561.23L1629.16 1574.1C1629.46 1575.95 1629.88 1577.49 1630.41 1578.73 1630.83 1579.69 1631.29 1580.29 1631.77 1580.52 1632.25 1580.75 1632.79 1580.74 1633.39 1580.48 1634.11 1580.17 1634.76 1579.48 1635.36 1578.41 1635.95 1577.34 1636.56 1575.85 1637.17 1573.93L1641.01 1575.45C1639.66 1578.98 1638.25 1581.68 1636.78 1583.56 1635.31 1585.44 1633.43 1586.87 1631.12 1587.88 1628.49 1589.02 1626.29 1589.2 1624.51 1588.43 1622.73 1587.66 1621.29 1586.01 1620.19 1583.48 1619.41 1581.67 1618.76 1579.2 1618.25 1576.06L1617.2 1569.18C1616.94 1567.41 1616.61 1565.69 1616.24 1564.01 1615.86 1562.33 1615.46 1561 1615.03 1560 1614.54 1558.89 1613.95 1558.16 1613.24 1557.82 1612.53 1557.48 1611.74 1557.5 1610.88 1557.88 1609.66 1558.4 1608.59 1559.73 1607.65 1561.84 1606.72 1563.96 1606.12 1566.02 1605.88 1568.03 1605.63 1570.03 1605.79 1572.44 1606.37 1575.26L1610.49 1596.13 1599.83 1600.77 1594.58 1572.34C1594.25 1570.57 1593.91 1569.26 1593.54 1568.42 1593.19 1567.6 1592.77 1567.03 1592.31 1566.7 1591.84 1566.37 1591.27 1566.35 1590.6 1566.64 1589.84 1566.98 1589.16 1567.68 1588.57 1568.77 1587.98 1569.85 1587.38 1571.33 1586.79 1573.21L1582.95 1571.7C1584.33 1568.09 1585.75 1565.36 1587.23 1563.51 1588.71 1561.66 1590.52 1560.27 1592.65 1559.35Z" fill-rule="evenodd"/><text fill="#000000" fill-opacity="0" font-family="Arial,Arial_MSFontService,sans-serif" font-size="51.4662" x="1582.95" y="1594.34">𝒏</text><path d="M1653.29 1551.05 1656.78 1549.53C1657.43 1551.32 1658.43 1553.77 1659.78 1556.87L1669.7 1579.7C1670.16 1580.76 1670.57 1581.53 1670.92 1582.02 1671.27 1582.5 1671.67 1582.85 1672.12 1583.05 1672.57 1583.26 1673.11 1583.34 1673.76 1583.28 1674.41 1583.23 1675.18 1583.06 1676.08 1582.79 1676.98 1582.52 1678.14 1582.1 1679.56 1581.52L1680.64 1584.01 1657.06 1594.26 1655.98 1591.77C1657.97 1590.8 1659.36 1590.05 1660.15 1589.52 1660.95 1588.99 1661.51 1588.47 1661.83 1587.96 1662.15 1587.46 1662.29 1586.87 1662.26 1586.22 1662.22 1585.56 1661.93 1584.6 1661.37 1583.32L1652.79 1563.57C1652.46 1562.83 1652.09 1562.35 1651.66 1562.15 1651.24 1561.94 1650.78 1561.95 1650.29 1562.16 1649.83 1562.36 1649.28 1562.85 1648.64 1563.62 1647.99 1564.4 1647 1565.85 1645.67 1567.97L1642.74 1565.8Z" fill-rule="evenodd"/><text fill="#000000" fill-opacity="0" font-family="Arial,Arial_MSFontService,sans-serif" font-size="44.729" x="1642.74" y="1588.67">𝟏</text><path d="M1644.72 1508.62 1657.55 1512.64 1658.49 1514.79 1652.66 1526.91 1649.73 1525.54 1653.43 1517.79 1638.26 1524.38 1630.75 1527.64 1624.14 1530.52 1615.96 1534.07 1610.01 1536.66 1601.83 1540.21 1595.87 1542.81 1587.71 1546.35 1573.57 1552.5 1572.05 1549.01 1586.19 1542.86 1594.35 1539.31 1600.32 1536.72 1608.49 1533.16 1614.44 1530.58 1622.62 1527.02 1629.24 1524.15 1636.74 1520.89 1651.91 1514.29 1643.72 1511.71Z" fill-rule="evenodd"/></g></svg>