<svg width="1309" height="1335" xmlns="http://www.w3.org/2000/svg" xmlns:xlink="http://www.w3.org/1999/xlink" xml:space="preserve" overflow="hidden"><defs><clipPath id="clip0"><rect x="1546" y="557" width="1309" height="1335"/></clipPath></defs><g clip-path="url(#clip0)" transform="translate(-1546 -557)"><path d="M1548.5 1238C1548.5 878.186 1840.41 586.5 2200.5 586.5 2560.59 586.5 2852.5 878.186 2852.5 1238 2852.5 1597.81 2560.59 1889.5 2200.5 1889.5 1840.41 1889.5 1548.5 1597.81 1548.5 1238Z" stroke="#2F528F" stroke-width="4.58333" stroke-miterlimit="8" fill="none" fill-rule="evenodd"/><path d="M1548.5 1238C1548.5 1169.24 1840.41 1113.5 2200.5 1113.5 2560.59 1113.5 2852.5 1169.24 2852.5 1238 2852.5 1306.76 2560.59 1362.5 2200.5 1362.5 1840.41 1362.5 1548.5 1306.76 1548.5 1238Z" stroke="#2F528F" stroke-width="4.58333" stroke-miterlimit="8" fill="none" fill-rule="evenodd"/><path d="M2.29167-1.26937e-06 2.29203 647.005-2.29131 647.005-2.29167 1.26937e-06ZM18.0215 620.656 0.000360262 651.549-18.0208 620.656C-18.6585 619.562-18.2893 618.159-17.196 617.522-16.1028 616.884-14.6996 617.253-14.0618 618.346L1.97985 645.846-1.97914 645.846 14.0625 618.346C14.7002 617.253 16.1035 616.884 17.1967 617.522 18.29 618.159 18.6592 619.562 18.0215 620.656Z" fill="#4472C4" transform="matrix(1 0 0 -1 2219.5 1238.04)"/><path d="M2220.71 1235.55 2418.23 1357.76 2415.82 1361.66 2218.29 1239.45ZM2404.1 1330.52 2420.89 1362.1 2385.14 1361.17C2383.88 1361.14 2382.88 1360.09 2382.91 1358.82 2382.94 1357.56 2383.99 1356.56 2385.26 1356.59L2417.09 1357.42 2415 1360.78 2400.06 1332.67C2399.46 1331.56 2399.89 1330.17 2401 1329.57 2402.12 1328.98 2403.51 1329.4 2404.1 1330.52Z" fill="#4472C4"/><path d="M0.447886-2.24747 438.094 84.9686 437.199 89.4635-0.447886 2.24747ZM415.328 64.3927 442.103 88.1042 408.284 99.74C407.087 100.152 405.783 99.5154 405.371 98.3186 404.959 97.1218 405.596 95.8178 406.792 95.406L436.897 85.0483 436.124 88.931 412.289 67.824C411.341 66.9849 411.254 65.5366 412.093 64.5891 412.932 63.6416 414.38 63.5536 415.328 64.3927Z" fill="#4472C4" transform="matrix(1 0 0 -1 2219.5 1237.6)"/><path d="M2.48027-2.38005 444.572 458.327 439.611 463.087-2.48027 2.38005ZM-9.92109 9.52021C-15.179 4.04094-14.9995-4.66323-9.52021-9.92109-4.04094-15.179 4.66323-14.9995 9.92109-9.52021 15.179-4.04094 14.9995 4.66323 9.52021 9.92109 4.04094 15.179-4.66323 14.9995-9.92109 9.52021ZM452.013 451.187C457.271 456.666 457.091 465.371 451.612 470.628 446.133 475.886 437.428 475.707 432.171 470.227 426.913 464.748 427.092 456.044 432.572 450.786 438.051 445.528 446.755 445.708 452.013 451.187Z" fill="#0D0D0D" transform="matrix(1 0 0 -1 2219.5 1238.21)"/><path d="M2219.5 775.208 2660.97 775.209 2660.97 779.792 2219.5 779.792ZM2219.5 791.25C2211.91 791.25 2205.75 785.094 2205.75 777.5 2205.75 769.906 2211.91 763.75 2219.5 763.75 2227.09 763.75 2233.25 769.906 2233.25 777.5 2233.25 785.094 2227.09 791.25 2219.5 791.25ZM2660.97 763.75C2668.56 763.75 2674.72 769.906 2674.72 777.5 2674.72 785.094 2668.56 791.25 2660.97 791.25 2653.38 791.25 2647.22 785.094 2647.22 777.5 2647.22 769.906 2653.38 763.75 2660.97 763.75Z" fill="#0D0D0D"/><path d="M2665.79 777.5 2665.79 1238.21 2661.21 1238.21 2661.21 777.5ZM2649.75 777.5C2649.75 769.906 2655.91 763.75 2663.5 763.75 2671.09 763.75 2677.25 769.906 2677.25 777.5 2677.25 785.094 2671.09 791.25 2663.5 791.25 2655.91 791.25 2649.75 785.094 2649.75 777.5ZM2677.25 1238.21C2677.25 1245.8 2671.09 1251.96 2663.5 1251.96 2655.91 1251.96 2649.75 1245.8 2649.75 1238.21 2649.75 1230.61 2655.91 1224.46 2663.5 1224.46 2671.09 1224.46 2677.25 1230.61 2677.25 1238.21Z" fill="#0D0D0D"/><path d="M2221.5 1235.21 2662.97 1235.21 2662.97 1239.79 2221.5 1239.79ZM2221.5 1251.25C2213.91 1251.25 2207.75 1245.09 2207.75 1237.5 2207.75 1229.91 2213.91 1223.75 2221.5 1223.75 2229.09 1223.75 2235.25 1229.91 2235.25 1237.5 2235.25 1245.09 2229.09 1251.25 2221.5 1251.25ZM2662.97 1223.75C2670.56 1223.75 2676.72 1229.91 2676.72 1237.5 2676.72 1245.09 2670.56 1251.25 2662.97 1251.25 2655.38 1251.25 2649.22 1245.09 2649.22 1237.5 2649.22 1229.91 2655.38 1223.75 2662.97 1223.75Z" fill="#0D0D0D"/><path d="M0.455768-2.24589 326.847 63.9901 325.936 68.4819-0.455768 2.24589ZM-2.7346 13.4753C-10.1768 11.965-14.9856 4.70761-13.4753-2.7346-11.965-10.1768-4.70761-14.9856 2.7346-13.4753 10.1768-11.965 14.9856-4.70761 13.4753 2.7346 11.965 10.1768 4.70761 14.9856-2.7346 13.4753ZM329.126 52.7607C336.568 54.271 341.377 61.5284 339.867 68.9706 338.356 76.4128 331.099 81.2216 323.657 79.7113 316.215 78.2011 311.406 70.9436 312.916 63.5014 314.426 56.0592 321.684 51.2504 329.126 52.7607Z" fill="#0D0D0D" transform="matrix(1 0 0 -1 2334.5 1303.74)"/><path d="M2529.49 1174.43 2658.51 1236.3 2656.52 1240.44 2527.51 1178.57ZM2522.55 1188.9C2515.71 1185.61 2512.82 1177.4 2516.1 1170.55 2519.39 1163.71 2527.6 1160.82 2534.45 1164.1 2541.29 1167.39 2544.18 1175.6 2540.9 1182.45 2537.61 1189.29 2529.4 1192.18 2522.55 1188.9ZM2663.46 1225.97C2670.31 1229.26 2673.2 1237.47 2669.91 1244.32 2666.63 1251.16 2658.42 1254.05 2651.57 1250.77 2644.72 1247.48 2641.83 1239.27 2645.12 1232.42 2648.4 1225.58 2656.61 1222.69 2663.46 1225.97Z" fill="#0D0D0D"/><path d="M2391.84 936.538 2394.07 936.538C2393.91 939.132 2393.82 942.725 2393.82 947.318L2393.82 981.929C2393.82 983.496 2393.91 984.678 2394.09 985.475 2394.26 986.272 2394.57 986.92 2395.02 987.42 2395.47 987.92 2396.11 988.312 2396.95 988.595 2397.78 988.879 2398.84 989.095 2400.11 989.244 2401.38 989.392 2403.05 989.494 2405.13 989.548L2405.13 992.506 2375.18 992.506 2375.18 989.548C2378.18 989.413 2380.32 989.23 2381.61 989.001 2382.89 988.771 2383.87 988.426 2384.54 987.967 2385.22 987.508 2385.71 986.859 2386.02 986.022 2386.33 985.184 2386.49 983.82 2386.49 981.929L2386.49 949.061C2386.49 947.98 2386.3 947.19 2385.92 946.69 2385.54 946.19 2384.99 945.94 2384.26 945.94 2383.4 945.94 2382.17 946.386 2380.57 947.278 2378.98 948.169 2377.01 949.399 2374.66 950.966L2372.87 947.845Z" fill-rule="evenodd"/><text fill="#000000" fill-opacity="0" font-family="Arial,Arial_MSFontService,sans-serif" font-size="55.9683" x="2372.87" y="985.51">1</text><path d="M2167.81 952.988 2196.62 952.988 2197.39 955.015 2178.06 977.224C2174.31 981.52 2171.05 985.167 2168.29 988.166L2168.54 988.45 2177.7 988.45C2179.32 988.45 2180.56 988.362 2181.43 988.186 2182.29 988.011 2183.05 987.68 2183.69 987.193 2184.34 986.707 2185.01 985.971 2185.7 984.985 2186.39 983.998 2187.25 982.452 2188.27 980.344L2191.88 980.344 2189.41 991.732 2160.07 991.732 2159.3 989.747 2181.47 964.214C2184.6 960.621 2186.9 958.068 2188.36 956.555L2188.11 956.271 2178.63 956.271C2177.22 956.271 2176.2 956.366 2175.55 956.555 2174.9 956.744 2174.25 957.075 2173.6 957.548 2172.95 958.02 2172.26 958.723 2171.52 959.655 2170.77 960.587 2169.94 961.918 2169.02 963.647L2165.42 963.647Z" fill-rule="evenodd"/><text fill="#000000" fill-opacity="0" font-family="Arial,Arial_MSFontService,sans-serif" font-size="38.7441" x="2159.3" y="986.889">𝑧</text><text font-family="Cambria Math,Cambria Math_MSFontService,sans-serif" font-weight="400" font-size="48" transform="translate(2277.6 1275)">𝜃</text><path d="M2421.87 1381.86C2422.7 1381.86 2423.44 1381.96 2424.07 1382.15 2424.71 1382.33 2425.27 1382.63 2425.76 1383.02 2426.24 1383.41 2426.68 1383.92 2427.05 1384.54 2427.43 1385.16 2427.8 1386 2428.15 1387.07 2428.5 1388.14 2428.83 1389.46 2429.14 1391.04 2429.45 1392.62 2429.73 1394.26 2429.97 1395.97L2430.38 1395.97C2432.97 1392.32 2434.94 1389.65 2436.27 1387.96 2437.61 1386.27 2438.74 1385.02 2439.66 1384.19 2440.58 1383.37 2441.46 1382.79 2442.31 1382.45 2443.16 1382.11 2444.29 1381.94 2445.7 1381.94 2446.97 1381.94 2448.01 1382.11 2448.82 1382.43L2447.2 1389.76 2444.36 1389.76C2444.2 1388.63 2443.72 1388.06 2442.94 1388.06 2442.7 1388.06 2442.44 1388.1 2442.17 1388.18 2441.9 1388.27 2441.57 1388.44 2441.18 1388.71 2440.79 1388.98 2440.21 1389.51 2439.45 1390.29 2438.7 1391.08 2437.85 1392.03 2436.9 1393.17 2435.96 1394.3 2434.98 1395.49 2433.98 1396.74L2431.23 1400.18C2431.71 1402.77 2432.17 1405.02 2432.61 1406.91 2433.04 1408.8 2433.42 1410.37 2433.76 1411.63 2434.1 1412.89 2434.4 1413.88 2434.65 1414.61 2434.91 1415.34 2435.19 1415.88 2435.48 1416.25 2435.78 1416.61 2436.08 1416.87 2436.4 1417.02 2436.71 1417.17 2437.06 1417.24 2437.47 1417.24 2438.2 1417.24 2438.91 1416.96 2439.6 1416.39 2440.29 1415.82 2441.28 1414.54 2442.58 1412.54L2445.21 1414.28C2443.32 1417.09 2441.61 1419.07 2440.08 1420.22 2438.56 1421.37 2436.74 1421.94 2434.63 1421.94 2433.47 1421.94 2432.48 1421.73 2431.67 1421.32 2430.86 1420.9 2430.16 1420.23 2429.57 1419.31 2428.97 1418.39 2428.44 1416.96 2427.99 1415.01 2427.15 1411.55 2426.63 1408.91 2426.45 1407.07L2426.04 1407.07C2423.18 1411.1 2421.05 1413.99 2419.66 1415.74 2418.27 1417.5 2417.12 1418.8 2416.21 1419.63 2415.31 1420.47 2414.43 1421.06 2413.58 1421.4 2412.73 1421.73 2411.6 1421.9 2410.19 1421.9 2408.92 1421.9 2407.88 1421.74 2407.07 1421.42L2408.69 1414.08 2411.53 1414.08C2411.69 1415.22 2412.17 1415.78 2412.95 1415.78 2413.33 1415.78 2413.73 1415.68 2414.15 1415.48 2414.56 1415.28 2415.17 1414.79 2415.95 1414.02 2416.73 1413.25 2417.81 1412.04 2419.19 1410.39 2420.57 1408.75 2422.57 1406.27 2425.19 1402.98 2424.78 1400.84 2424.37 1398.79 2423.93 1396.82 2423.5 1394.84 2423.05 1393.01 2422.6 1391.3 2422.14 1389.6 2421.76 1388.49 2421.46 1387.96 2421.16 1387.43 2420.85 1387.07 2420.51 1386.87 2420.17 1386.66 2419.75 1386.56 2419.23 1386.56 2418.66 1386.56 2418.15 1386.69 2417.69 1386.95 2417.23 1387.2 2416.73 1387.65 2416.19 1388.29 2415.65 1388.92 2414.94 1389.91 2414.04 1391.26L2411.41 1389.52C2413.11 1386.95 2414.75 1385.04 2416.31 1383.77 2417.88 1382.5 2419.73 1381.86 2421.87 1381.86Z" fill-rule="evenodd"/><text fill="#000000" fill-opacity="0" font-family="Arial,Arial_MSFontService,sans-serif" font-size="40.0815" x="2407.07" y="1416.93">𝑥</text><path d="M2708.89 1091.05C2710 1091.05 2710.95 1091.2 2711.73 1091.49 2712.27 1091.71 2712.81 1092.07 2713.35 1092.57 2713.89 1093.07 2714.37 1093.76 2714.79 1094.65 2715.21 1095.55 2715.57 1096.55 2715.88 1097.65 2716.19 1098.76 2716.54 1100.36 2716.92 1102.44 2717.56 1105.92 2718.19 1109.59 2718.8 1113.44 2719.41 1117.29 2719.93 1120.86 2720.36 1124.16 2722.98 1120.38 2725.2 1116.67 2727.03 1113.05 2728.85 1109.43 2730.16 1106.29 2730.96 1103.61 2731.76 1100.94 2732.15 1098.76 2732.15 1097.09 2732.15 1095.82 2731.88 1094.95 2731.34 1094.49 2730.8 1094.03 2729.89 1093.76 2728.59 1093.68L2728.99 1091.7 2739.65 1091.7 2740.75 1093.72C2738.69 1099.34 2735.91 1105.35 2732.4 1111.76 2728.94 1118.03 2724.98 1124.27 2720.52 1130.48 2716.25 1136.4 2712.7 1140.68 2709.86 1143.33 2707.89 1145.14 2705.99 1146.44 2704.15 1147.22 2702.69 1147.81 2701.14 1148.11 2699.49 1148.11 2698.92 1148.11 2698.27 1148.06 2697.52 1147.97 2696.78 1147.87 2696.21 1147.75 2695.8 1147.58L2697.54 1139.72 2700.75 1139.72C2700.75 1141.45 2701.34 1142.31 2702.53 1142.31 2704.1 1142.31 2705.92 1141.34 2708 1139.38 2710.08 1137.42 2712.53 1134.47 2715.34 1130.52 2714.55 1125.79 2713.49 1120.09 2712.13 1113.42 2710.7 1106.29 2709.76 1101.87 2709.3 1100.17 2708.73 1098.11 2708.14 1096.8 2707.51 1096.24 2707.14 1095.88 2706.66 1095.71 2706.1 1095.71 2705.23 1095.71 2704.42 1096.06 2703.66 1096.76 2702.91 1097.46 2701.98 1098.68 2700.87 1100.41L2698.23 1098.67C2700.1 1095.88 2701.84 1093.92 2703.46 1092.77 2705.08 1091.62 2706.89 1091.05 2708.89 1091.05Z" fill-rule="evenodd"/><text fill="#000000" fill-opacity="0" font-family="Arial,Arial_MSFontService,sans-serif" font-size="57.0625" x="2695.8" y="1140.98">𝑦</text></g></svg>