<?xml version="1.0" encoding="utf-8"?>
<!-- Generator: Adobe Illustrator 25.3.1, SVG Export Plug-In . SVG Version: 6.00 Build 0)  -->
<svg version="1.1" id="Layer_1" xmlns="http://www.w3.org/2000/svg" xmlns:xlink="http://www.w3.org/1999/xlink" x="0px" y="0px"
	 viewBox="0 0 271 160" style="enable-background:new 0 0 271 160;" xml:space="preserve">
<style type="text/css">
	.st0{clip-path:url(#SVGID_2_);}
	.st1{fill:#171E1F;}
	.st2{fill:#D08EDB;}
	.st3{fill:#FFFFFF;}
	.st4{fill:#9EDFFF;}
	.st5{fill:#EAFFD9;}
	.st6{fill:#C7DF94;}
</style>
<g>
	<defs>
		<rect id="SVGID_1_" width="271" height="160"/>
	</defs>
	<clipPath id="SVGID_2_">
		<use xlink:href="#SVGID_1_"  style="overflow:visible;"/>
	</clipPath>
	<g class="st0">
		<rect class="st1" width="271" height="160"/>
		<g>
			<path class="st2" d="M27.2,11.4c0.4,0,0.7-0.3,0.7-0.7c0-0.4-0.3-0.7-0.7-0.7s-0.7,0.3-0.7,0.7C26.5,11.1,26.8,11.4,27.2,11.4z
				 M29.4,18v-0.7h-1.8v-4.6H25v0.7h1.8v3.9H25V18H29.4z M35.8,14.1c0-1-0.4-1.5-1.1-1.5c-0.5,0-1,0.3-1.1,0.8h-0.1
				c-0.1-0.5-0.5-0.8-1-0.8c-0.5,0-0.9,0.3-1,0.8h-0.1v-0.7h-0.7V18h0.7v-3.6c0-0.7,0.3-1.1,0.8-1.1c0.4,0,0.7,0.3,0.7,1V18h0.7
				v-3.6c0-0.7,0.3-1.1,0.7-1.1c0.4,0,0.7,0.3,0.7,1V18h0.7V14.1z M39.8,12.6c-0.8,0-1.3,0.3-1.6,0.9h-0.1v-0.8h-0.8v7.1h0.8v-2.6
				h0.1c0.2,0.6,0.8,0.9,1.6,0.9c1.2,0,2-0.9,2-2.2v-1C41.8,13.5,41,12.6,39.8,12.6z M39.5,13.4c0.9,0,1.4,0.6,1.4,1.6v0.8
				c0,1-0.6,1.6-1.4,1.6c-0.9,0-1.4-0.6-1.4-1.6V15C38.1,14,38.7,13.4,39.5,13.4z M45.6,18.1c1.4,0,2.3-0.9,2.3-2.3V15
				c0-1.4-0.9-2.3-2.3-2.3c-1.4,0-2.3,0.9-2.3,2.3v0.8C43.3,17.2,44.2,18.1,45.6,18.1z M45.6,13.3c0.9,0,1.5,0.6,1.5,1.7v0.6
				c0,1-0.6,1.7-1.5,1.7s-1.5-0.6-1.5-1.7V15C44.2,14,44.7,13.3,45.6,13.3z M51.6,15.6c0-1.3,0.7-2.2,1.9-2.2c0.3,0,0.6,0.1,0.9,0.1
				v-0.9c-0.2-0.1-0.5-0.1-0.8-0.1c-1,0-1.7,0.5-1.9,1.5h-0.1v-1.4h-2v0.7h1.2v4h-1.1V18h3.5v-0.7h-1.6V15.6z M57.1,11.3v1.4h-1.4
				v0.7h1.4v3c0,1.1,0.6,1.6,1.9,1.6c0.3,0,0.9,0,1,0v-0.7c-0.1,0-0.7,0-1,0c-0.7,0-1.2-0.3-1.2-0.9v-3h2.1v-0.7h-2.1v-1.4H57.1z
				 M113.1,18.1c0.8,0,1.3-0.3,1.6-0.9h0.1V18h0.8v-3.6c0-1.1-0.7-1.7-2-1.7c-1.1,0-1.9,0.6-2,1.4h0.8c0.1-0.5,0.6-0.7,1.2-0.7
				c0.7,0,1.1,0.4,1.1,1v0.5l-1.5,0.1c-1.2,0.1-1.9,0.6-1.9,1.6C111.4,17.5,112.1,18.1,113.1,18.1z M113.3,17.4
				c-0.7,0-1.1-0.3-1.1-0.9c0-0.6,0.4-0.9,1.1-0.9l1.4-0.1v0.6C114.7,16.8,114.1,17.4,113.3,17.4z M117.9,14.1
				c0,0.8,0.5,1.2,1.4,1.5l0.8,0.2c0.7,0.2,0.9,0.4,0.9,0.8c0,0.5-0.5,0.8-1.2,0.8c-0.7,0-1.2-0.3-1.3-0.8h-0.8
				c0.1,0.9,0.9,1.5,2.1,1.5c1.3,0,2.1-0.6,2.1-1.6c0-0.8-0.5-1.2-1.5-1.5l-0.7-0.2c-0.7-0.1-0.9-0.4-0.9-0.8c0-0.5,0.4-0.8,1.1-0.8
				c0.6,0,1.1,0.3,1.2,0.7h0.8c-0.1-0.9-0.8-1.4-1.9-1.4C118.7,12.6,117.9,13.2,117.9,14.1z M26.8,66.1c0.8,0,1.3-0.3,1.6-0.9h0.1
				V66h0.8v-7.4h-0.8v2.9h-0.1c-0.2-0.6-0.8-0.9-1.6-0.9c-1.2,0-2,0.9-2,2.2v1C24.7,65.2,25.5,66.1,26.8,66.1z M27,65.3
				c-0.9,0-1.4-0.6-1.4-1.6V63c0-1,0.6-1.6,1.4-1.6c0.9,0,1.4,0.6,1.4,1.6v0.8C28.4,64.7,27.9,65.3,27,65.3z M34.7,64.6
				c-0.1,0.5-0.6,0.7-1.3,0.7c-0.9,0-1.5-0.6-1.5-1.6v-0.2h3.6v-0.5c0-1.5-0.8-2.4-2.2-2.4c-1.3,0-2.2,0.9-2.2,2.3v0.8
				c0,1.5,0.8,2.4,2.3,2.4c1.1,0,2-0.6,2.1-1.5H34.7z M33.3,61.3c0.9,0,1.4,0.6,1.4,1.6h-2.8C31.9,61.9,32.4,61.3,33.3,61.3z
				 M38.7,66h0.8v-4.6h2.3v-0.7h-2.3v-0.5c0-0.5,0.4-0.8,1.1-0.8c0.3,0,1,0,1.2,0v-0.7c-0.2,0-0.9,0-1.2,0c-1.3,0-1.9,0.5-1.9,1.5
				v0.5h-1.4v0.7h1.4V66z M51,90h0.8v-4.6h2.3v-0.7h-2.3v-0.5c0-0.5,0.4-0.8,1.1-0.8c0.3,0,1,0,1.2,0v-0.7c-0.2,0-0.9,0-1.2,0
				c-1.3,0-1.9,0.5-1.9,1.5v0.5h-1.4v0.7H51V90z M58,90.1c1.4,0,2.3-0.9,2.3-2.3V87c0-1.4-0.9-2.3-2.3-2.3c-1.4,0-2.3,0.9-2.3,2.3
				v0.8C55.7,89.2,56.6,90.1,58,90.1z M58,85.3c0.9,0,1.5,0.6,1.5,1.7v0.6c0,1-0.6,1.7-1.5,1.7s-1.5-0.6-1.5-1.7V87
				C56.5,86,57.1,85.3,58,85.3z M64,87.6c0-1.3,0.7-2.2,1.9-2.2c0.3,0,0.6,0.1,0.9,0.1v-0.9c-0.2-0.1-0.5-0.1-0.8-0.1
				c-1,0-1.7,0.5-1.9,1.5H64v-1.4h-2v0.7h1.2v4h-1.1V90h3.5v-0.7H64V87.6z M89,83.4c0.4,0,0.7-0.3,0.7-0.7c0-0.4-0.3-0.7-0.7-0.7
				s-0.7,0.3-0.7,0.7C88.3,83.1,88.6,83.4,89,83.4z M91.2,90v-0.7h-1.8v-4.6h-2.6v0.7h1.8v3.9h-1.8V90H91.2z M92.9,90h0.8v-3.1
				c0-0.9,0.6-1.5,1.5-1.5c0.8,0,1.2,0.4,1.2,1.4V90h0.8v-3.4c0-1.3-0.6-2-1.8-2c-0.8,0-1.4,0.4-1.7,1h-0.1v-0.9h-0.8V90z
				 M76.6,119.4c0.4,0,0.7-0.3,0.7-0.7c0-0.4-0.3-0.7-0.7-0.7c-0.4,0-0.7,0.3-0.7,0.7C75.9,119.1,76.2,119.4,76.6,119.4z M78.9,126
				v-0.7h-1.8v-4.6h-2.6v0.7h1.8v3.9h-1.8v0.7H78.9z M81.9,126h0.8v-4.6h2.3v-0.7h-2.3v-0.5c0-0.5,0.4-0.8,1.1-0.8c0.3,0,1,0,1.2,0
				v-0.7c-0.2,0-0.9,0-1.2,0c-1.3,0-1.9,0.5-1.9,1.5v0.5h-1.4v0.7h1.4V126z M51.6,147.6c0-1.3,0.7-2.2,1.9-2.2
				c0.3,0,0.6,0.1,0.9,0.1v-0.9c-0.2-0.1-0.5-0.1-0.8-0.1c-1,0-1.7,0.5-1.9,1.5h-0.1v-1.4h-2v0.7h1.2v4h-1.1v0.7h3.5v-0.7h-1.6
				V147.6z M59.4,148.6c-0.1,0.5-0.6,0.7-1.3,0.7c-0.9,0-1.5-0.6-1.5-1.6v-0.2h3.6v-0.5c0-1.5-0.8-2.4-2.2-2.4
				c-1.3,0-2.2,0.9-2.2,2.3v0.8c0,1.5,0.8,2.4,2.3,2.4c1.1,0,2-0.6,2.1-1.5H59.4z M58.1,145.3c0.9,0,1.4,0.6,1.4,1.6h-2.8
				C56.6,145.9,57.2,145.3,58.1,145.3z M63.3,143.3v1.4h-1.4v0.7h1.4v3c0,1.1,0.6,1.6,1.9,1.6c0.3,0,0.9,0,1,0v-0.7
				c-0.1,0-0.7,0-1,0c-0.7,0-1.2-0.3-1.2-0.9v-3h2.1v-0.7h-2.1v-1.4H63.3z M72.5,144.7h-0.8v3.1c0,0.9-0.6,1.5-1.5,1.5
				c-0.8,0-1.2-0.4-1.2-1.4v-3.2h-0.8v3.4c0,1.3,0.6,2,1.8,2c0.8,0,1.4-0.4,1.7-1h0.1v0.9h0.8V144.7z M76.3,147.6
				c0-1.3,0.7-2.2,1.9-2.2c0.3,0,0.6,0.1,0.9,0.1v-0.9c-0.2-0.1-0.5-0.1-0.8-0.1c-1,0-1.7,0.5-1.9,1.5h-0.1v-1.4h-2v0.7h1.2v4h-1.1
				v0.7H78v-0.7h-1.6V147.6z M80.6,150h0.8v-3.1c0-0.9,0.6-1.5,1.5-1.5c0.8,0,1.2,0.4,1.2,1.4v3.2h0.8v-3.4c0-1.3-0.6-2-1.8-2
				c-0.8,0-1.4,0.4-1.7,1h-0.1v-0.9h-0.8V150z"/>
			<path class="st3" d="M69.3,26.5c0,1.7,0.5,3.1,1.5,4.2h0.8c-1-1.4-1.4-2.7-1.4-4.2s0.4-2.8,1.4-4.2h-0.8
				C69.8,23.4,69.3,24.8,69.3,26.5z M77.6,26.5c0-1.7-0.5-3.1-1.5-4.2h-0.8c1,1.4,1.4,2.7,1.4,4.2s-0.4,2.8-1.4,4.2h0.8
				C77.1,29.6,77.6,28.1,77.6,26.5z M27.2,55c0.5,0,1-0.1,1.2-0.2v-0.6c-0.2,0.1-0.7,0.2-1.1,0.2c-1.5,0-2.2-1-2.2-3.1v-0.8
				c0-2.1,0.6-3.1,2-3.1c1.3,0,1.9,0.8,1.9,2.5v1.4c0,0.5-0.2,0.7-0.6,0.7h-0.8v-2c0-0.4-0.2-0.6-0.5-0.6c-0.3,0-0.5,0.2-0.5,0.6v2
				c0,0.4,0.2,0.6,0.6,0.6h1.2c0.7,0,1.1-0.5,1.1-1.2v-1.5c0-1.9-0.9-3-2.5-3c-1.7,0-2.6,1.3-2.6,3.6v0.9C24.6,53.7,25.5,55,27.2,55
				z M32.4,47.3v1.4H31v0.7h1.4v3c0,1.1,0.6,1.6,1.9,1.6c0.3,0,0.9,0,1,0v-0.7c-0.1,0-0.7,0-1,0c-0.7,0-1.2-0.3-1.2-0.9v-3h2.1v-0.7
				h-2.1v-1.4H32.4z M39.5,47.4c0.4,0,0.7-0.3,0.7-0.7c0-0.4-0.3-0.7-0.7-0.7c-0.4,0-0.7,0.3-0.7,0.7C38.9,47.1,39.2,47.4,39.5,47.4
				z M41.8,54v-0.7H40v-4.6h-2.6v0.7h1.8v3.9h-1.8V54H41.8z M45.6,54c0.5,0,0.9-0.4,0.9-0.9c0-0.5-0.4-0.9-0.9-0.9s-0.9,0.4-0.9,0.9
				C44.8,53.6,45.2,54,45.6,54z M137.3,62.5c0,1.7,0.5,3.1,1.5,4.2h0.8c-1-1.4-1.4-2.7-1.4-4.2c0-1.5,0.4-2.8,1.4-4.2h-0.8
				C137.8,59.4,137.3,60.8,137.3,62.5z M150.7,62.3c0.5,0,0.9-0.4,0.9-0.9c0-0.5-0.4-0.9-0.9-0.9c-0.5,0-0.9,0.4-0.9,0.9
				C149.8,61.9,150.2,62.3,150.7,62.3z M150.7,66c0.5,0,0.9-0.4,0.9-0.9c0-0.5-0.4-0.9-0.9-0.9c-0.5,0-0.9,0.4-0.9,0.9
				C149.8,65.6,150.2,66,150.7,66z M163.2,59.4c0.4,0,0.7-0.3,0.7-0.7c0-0.4-0.3-0.7-0.7-0.7c-0.4,0-0.7,0.3-0.7,0.7
				C162.5,59.1,162.8,59.4,163.2,59.4z M165.4,66v-0.7h-1.8v-4.6H161v0.7h1.8v3.9H161V66H165.4z M167.1,66h0.8v-3.1
				c0-0.9,0.6-1.5,1.5-1.5c0.8,0,1.2,0.4,1.2,1.4V66h0.8v-3.4c0-1.3-0.6-2-1.8-2c-0.8,0-1.4,0.4-1.7,1h-0.1v-0.9h-0.8V66z
				 M174.5,59.3v1.4h-1.4v0.7h1.4v3c0,1.1,0.6,1.6,1.9,1.6c0.3,0,0.9,0,1,0v-0.7c-0.1,0-0.7,0-1,0c-0.7,0-1.2-0.3-1.2-0.9v-3h2.1
				v-0.7h-2.1v-1.4H174.5z M182.7,62.5c0-1.7-0.5-3.1-1.5-4.2h-0.8c1,1.4,1.4,2.7,1.4,4.2c0,1.5-0.4,2.8-1.4,4.2h0.8
				C182.2,65.6,182.7,64.1,182.7,62.5z M196.6,63.3v-0.8h-5.2v0.8H196.6z M198.1,61l3.4,1.9v0.1l-3.4,1.9v0.9l4.2-2.5v-0.7l-4.2-2.5
				V61z M211.8,66h0.8v-4.6h2.3v-0.7h-2.3v-0.5c0-0.5,0.4-0.8,1.1-0.8c0.3,0,1,0,1.2,0v-0.7c-0.2,0-0.9,0-1.2,0
				c-1.3,0-1.9,0.5-1.9,1.5v0.5h-1.4v0.7h1.4V66z M221,66v-0.7h-1.7v-6.7h-2.6v0.7h1.8v6h-1.8V66H221z M224.9,66.1
				c1.4,0,2.3-0.9,2.3-2.3V63c0-1.4-0.9-2.3-2.3-2.3c-1.4,0-2.3,0.9-2.3,2.3v0.8C222.6,65.2,223.5,66.1,224.9,66.1z M224.9,61.3
				c0.9,0,1.5,0.6,1.5,1.7v0.6c0,1-0.6,1.7-1.5,1.7c-0.9,0-1.5-0.6-1.5-1.7V63C223.4,62,224,61.3,224.9,61.3z M230.5,66.1
				c0.8,0,1.3-0.3,1.6-0.9h0.1V66h0.8v-3.6c0-1.1-0.7-1.7-2-1.7c-1.1,0-1.9,0.6-2,1.4h0.8c0.1-0.5,0.6-0.7,1.2-0.7
				c0.7,0,1.1,0.4,1.1,1v0.5l-1.5,0.1c-1.2,0.1-1.9,0.6-1.9,1.6C228.9,65.5,229.5,66.1,230.5,66.1z M230.8,65.4
				c-0.7,0-1.1-0.3-1.1-0.9c0-0.6,0.4-0.9,1.1-0.9l1.4-0.1v0.6C232.2,64.8,231.6,65.4,230.8,65.4z M236.4,59.3v1.4H235v0.7h1.4v3
				c0,1.1,0.6,1.6,1.9,1.6c0.3,0,0.9,0,1,0v-0.7c-0.1,0-0.7,0-1,0c-0.7,0-1.2-0.3-1.2-0.9v-3h2.1v-0.7h-2.1v-1.4H236.4z M243.4,62.3
				c0.5,0,0.9-0.4,0.9-0.9c0-0.5-0.4-0.9-0.9-0.9c-0.5,0-0.9,0.4-0.9,0.9C242.6,61.9,243,62.3,243.4,62.3z M243.4,66
				c0.5,0,0.9-0.4,0.9-0.9c0-0.5-0.4-0.9-0.9-0.9c-0.5,0-0.9,0.4-0.9,0.9C242.6,65.6,243,66,243.4,66z M91.5,74.2v-0.8h-5.2v0.8
				H91.5z M91.5,76.4v-0.8h-5.2v0.8H91.5z M76.6,83.4c0.4,0,0.7-0.3,0.7-0.7c0-0.4-0.3-0.7-0.7-0.7c-0.4,0-0.7,0.3-0.7,0.7
				C75.9,83.1,76.2,83.4,76.6,83.4z M78.9,90v-0.7h-1.8v-4.6h-2.6v0.7h1.8v3.9h-1.8V90H78.9z M107.2,87.6c0-1.3,0.7-2.2,1.9-2.2
				c0.3,0,0.6,0.1,0.9,0.1v-0.9c-0.2-0.1-0.5-0.1-0.8-0.1c-1,0-1.7,0.5-1.9,1.5h-0.1v-1.4h-2v0.7h1.2v4h-1.1V90h3.5v-0.7h-1.6V87.6z
				 M113.1,90.1c0.8,0,1.3-0.3,1.6-0.9h0.1V90h0.8v-3.6c0-1.1-0.7-1.7-2-1.7c-1.1,0-1.9,0.6-2,1.4h0.8c0.1-0.5,0.6-0.7,1.2-0.7
				c0.7,0,1.1,0.4,1.1,1v0.5l-1.5,0.1c-1.2,0.1-1.9,0.6-1.9,1.6C111.4,89.5,112.1,90.1,113.1,90.1z M113.3,89.4
				c-0.7,0-1.1-0.3-1.1-0.9c0-0.6,0.4-0.9,1.1-0.9l1.4-0.1v0.6C114.7,88.8,114.1,89.4,113.3,89.4z M117.6,90h0.8v-3.1
				c0-0.9,0.6-1.5,1.5-1.5c0.8,0,1.2,0.4,1.2,1.4V90h0.8v-3.4c0-1.3-0.6-2-1.8-2c-0.8,0-1.4,0.4-1.7,1h-0.1v-0.9h-0.8V90z M125.8,92
				c1.4,0,2.3-0.7,2.3-2v-5.3h-0.8v0.8h-0.1c-0.2-0.6-0.8-0.9-1.6-0.9c-1.2,0-2.1,0.9-2.1,2.2v1c0,1.4,0.8,2.2,2,2.2
				c0.8,0,1.4-0.3,1.6-0.9h0.1V90c0,0.8-0.5,1.3-1.4,1.3c-0.7,0-1.2-0.3-1.3-0.7h-0.8C123.8,91.5,124.6,92,125.8,92z M124.4,87.7V87
				c0-1,0.6-1.6,1.4-1.6c0.9,0,1.4,0.6,1.4,1.6v0.7c0,1-0.6,1.6-1.4,1.6C125,89.3,124.4,88.7,124.4,87.7z M133.6,88.6
				c-0.1,0.5-0.6,0.7-1.3,0.7c-0.9,0-1.5-0.6-1.5-1.6v-0.2h3.6v-0.5c0-1.5-0.8-2.4-2.2-2.4c-1.3,0-2.2,0.9-2.2,2.3v0.8
				c0,1.5,0.8,2.4,2.3,2.4c1.1,0,2-0.6,2.1-1.5H133.6z M132.2,85.3c0.9,0,1.4,0.6,1.4,1.6h-2.8C130.8,85.9,131.4,85.3,132.2,85.3z
				 M137.3,86.5c0,1.7,0.5,3.1,1.5,4.2h0.8c-1-1.4-1.4-2.7-1.4-4.2c0-1.5,0.4-2.8,1.4-4.2h-0.8C137.8,83.4,137.3,84.8,137.3,86.5z
				 M151.8,86.5c0-1.7-0.5-3.1-1.5-4.2h-0.8c1,1.4,1.4,2.7,1.4,4.2c0,1.5-0.4,2.8-1.4,4.2h0.8C151.3,89.6,151.8,88.1,151.8,86.5z
				 M156.9,86.3c0.5,0,0.9-0.4,0.9-0.9c0-0.5-0.4-0.9-0.9-0.9c-0.5,0-0.9,0.4-0.9,0.9C156,85.9,156.4,86.3,156.9,86.3z M156.9,90
				c0.5,0,0.9-0.4,0.9-0.9c0-0.5-0.4-0.9-0.9-0.9c-0.5,0-0.9,0.4-0.9,0.9C156,89.6,156.4,90,156.9,90z M91.5,98.2v-0.8h-5.2v0.8
				H91.5z M91.5,100.4v-0.8h-5.2v0.8H91.5z M113.6,102c0.5,0,0.9-0.4,0.9-0.9c0-0.5-0.4-0.9-0.9-0.9c-0.5,0-0.9,0.4-0.9,0.9
				C112.8,101.6,113.2,102,113.6,102z M155.8,98.5c0,1.7,0.5,3.1,1.5,4.2h0.8c-1-1.4-1.4-2.7-1.4-4.2c0-1.5,0.4-2.8,1.4-4.2h-0.8
				C156.3,95.4,155.8,96.8,155.8,98.5z M164.2,98.5c0-1.7-0.5-3.1-1.5-4.2h-0.8c1,1.4,1.4,2.7,1.4,4.2c0,1.5-0.4,2.8-1.4,4.2h0.8
				C163.7,101.6,164.2,100.1,164.2,98.5z M91.5,110.2v-0.8h-5.2v0.8H91.5z M91.5,112.4v-0.8h-5.2v0.8H91.5z M113.6,114
				c0.5,0,0.9-0.4,0.9-0.9c0-0.5-0.4-0.9-0.9-0.9c-0.5,0-0.9,0.4-0.9,0.9C112.8,113.6,113.2,114,113.6,114z M155.8,110.5
				c0,1.7,0.5,3.1,1.5,4.2h0.8c-1-1.4-1.4-2.7-1.4-4.2c0-1.5,0.4-2.8,1.4-4.2h-0.8C156.3,107.4,155.8,108.8,155.8,110.5z
				 M164.2,110.5c0-1.7-0.5-3.1-1.5-4.2h-0.8c1,1.4,1.4,2.7,1.4,4.2c0,1.5-0.4,2.8-1.4,4.2h0.8C163.7,113.6,164.2,112.1,164.2,110.5
				z M94,122.5c0,1.7,0.5,3.1,1.5,4.2h0.8c-1-1.4-1.4-2.7-1.4-4.2c0-1.5,0.4-2.8,1.4-4.2h-0.8C94.5,119.4,94,120.8,94,122.5z
				 M111,121.8l2,1.1l-2,1.1l0.3,0.6l2-1.2l-0.1,2.3h0.7l-0.1-2.3l2,1.2l0.3-0.6l-2-1.1l2-1.1l-0.3-0.6l-2,1.2l0.1-2.3h-0.7l0.1,2.3
				l-2-1.2L111,121.8z M117.2,121.8l2,1.1l-2,1.1l0.3,0.6l2-1.2l-0.1,2.3h0.7l-0.1-2.3l2,1.2l0.3-0.6l-2-1.1l2-1.1l-0.3-0.6l-2,1.2
				l0.1-2.3h-0.7l0.1,2.3l-2-1.2L117.2,121.8z M144.9,123.3h2.2v-0.8h-2.2v-2.2h-0.8v2.2h-2.2v0.8h2.2v2.2h0.8V123.3z M166.6,121.8
				l2,1.1l-2,1.1l0.3,0.6l2-1.2l-0.1,2.3h0.7l-0.1-2.3l2,1.2l0.3-0.6l-2-1.1l2-1.1l-0.3-0.6l-2,1.2l0.1-2.3h-0.7l0.1,2.3l-2-1.2
				L166.6,121.8z M172.8,121.8l2,1.1l-2,1.1l0.3,0.6l2-1.2l-0.1,2.3h0.7l-0.1-2.3l2,1.2l0.3-0.6l-2-1.1l2-1.1l-0.3-0.6l-2,1.2
				l0.1-2.3h-0.7l0.1,2.3l-2-1.2L172.8,121.8z M195.1,122.5c0-1.7-0.5-3.1-1.5-4.2h-0.8c1,1.4,1.4,2.7,1.4,4.2
				c0,1.5-0.4,2.8-1.4,4.2h0.8C194.6,125.6,195.1,124.1,195.1,122.5z M208.5,121V120l-4.2,2.5v0.7l4.2,2.5v-0.9l-3.4-1.9v-0.1
				L208.5,121z M237.3,122.3c0.5,0,0.9-0.4,0.9-0.9c0-0.5-0.4-0.9-0.9-0.9c-0.5,0-0.9,0.4-0.9,0.9
				C236.4,121.9,236.8,122.3,237.3,122.3z M237.3,126c0.5,0,0.9-0.4,0.9-0.9c0-0.5-0.4-0.9-0.9-0.9c-0.5,0-0.9,0.4-0.9,0.9
				C236.4,125.6,236.8,126,237.3,126z M138.7,135.3h2.2v-0.8h-2.2v-2.2H138v2.2h-2.2v0.8h2.2v2.2h0.8V135.3z M147.1,134.2v-0.8H142
				v0.8H147.1z M147.1,136.4v-0.8H142v0.8H147.1z M117.2,145.8l2,1.1l-2,1.1l0.3,0.6l2-1.2l-0.1,2.3h0.7l-0.1-2.3l2,1.2l0.3-0.6
				l-2-1.1l2-1.1l-0.3-0.6l-2,1.2l0.1-2.3h-0.7l0.1,2.3l-2-1.2L117.2,145.8z M168,150.7l3.4-8.4h-0.8l-3.4,8.4H168z"/>
			<path class="st4" d="M69.5,11.3v1.4H68v0.7h1.4v3c0,1.1,0.6,1.6,1.9,1.6c0.3,0,0.9,0,1,0v-0.7c-0.1,0-0.7,0-1,0
				c-0.7,0-1.2-0.3-1.2-0.9v-3h2.1v-0.7h-2.1v-1.4H69.5z M76,18.1c0.8,0,1.3-0.3,1.6-0.9h0.1V18h0.8v-3.6c0-1.1-0.7-1.7-2-1.7
				c-1.1,0-1.9,0.6-2,1.4h0.8c0.1-0.5,0.6-0.7,1.2-0.7c0.7,0,1.1,0.4,1.1,1v0.5l-1.5,0.1c-1.2,0.1-1.9,0.6-1.9,1.6
				C74.3,17.5,75,18.1,76,18.1z M76.2,17.4c-0.7,0-1.1-0.3-1.1-0.9c0-0.6,0.4-0.9,1.1-0.9l1.4-0.1v0.6C77.7,16.8,77,17.4,76.2,17.4z
				 M82.8,11.4c0.4,0,0.7-0.3,0.7-0.7c0-0.4-0.3-0.7-0.7-0.7c-0.4,0-0.7,0.3-0.7,0.7C82.1,11.1,82.4,11.4,82.8,11.4z M85,18v-0.7
				h-1.8v-4.6h-2.6v0.7h1.8v3.9h-1.8V18H85z M91.1,14.4c-0.1-1.1-0.9-1.8-2.1-1.8c-1.4,0-2.3,0.9-2.3,2.4v0.7c0,1.5,0.8,2.4,2.3,2.4
				c1.2,0,2-0.7,2.1-1.7h-0.8c-0.1,0.6-0.6,1-1.3,1c-0.9,0-1.4-0.6-1.4-1.8v-0.5c0-1.1,0.5-1.8,1.4-1.8c0.7,0,1.2,0.4,1.3,1H91.1z
				 M92.9,18h0.8v-3.1c0-0.9,0.6-1.5,1.5-1.5c0.8,0,1.2,0.5,1.2,1.4V18h0.8v-3.4c0-1.3-0.6-2-1.8-2c-0.8,0-1.4,0.4-1.7,1h-0.1v-3
				h-0.8V18z M101.4,11.4c0.4,0,0.7-0.3,0.7-0.7c0-0.4-0.3-0.7-0.7-0.7c-0.4,0-0.7,0.3-0.7,0.7C100.7,11.1,101,11.4,101.4,11.4z
				 M103.6,18v-0.7h-1.8v-4.6h-2.6v0.7h1.8v3.9h-1.8V18H103.6z M131.3,11.3v1.4h-1.4v0.7h1.4v3c0,1.1,0.6,1.6,1.9,1.6
				c0.3,0,0.9,0,1,0v-0.7c-0.1,0-0.7,0-1,0c-0.7,0-1.2-0.3-1.2-0.9v-3h2.1v-0.7h-2.1v-1.4H131.3z M138.5,11.4c0.4,0,0.7-0.3,0.7-0.7
				c0-0.4-0.3-0.7-0.7-0.7c-0.4,0-0.7,0.3-0.7,0.7C137.8,11.1,138.1,11.4,138.5,11.4z M140.7,18v-0.7h-1.8v-4.6h-2.6v0.7h1.8v3.9
				h-1.8V18H140.7z M26.2,23.3v1.4h-1.4v0.7h1.4v3c0,1.1,0.6,1.6,1.9,1.6c0.3,0,0.9,0,1,0v-0.7c-0.1,0-0.7,0-1,0
				c-0.7,0-1.2-0.3-1.2-0.9v-3h2.1v-0.7H27v-1.4H26.2z M33.4,23.4c0.4,0,0.7-0.3,0.7-0.7c0-0.4-0.3-0.7-0.7-0.7
				c-0.4,0-0.7,0.3-0.7,0.7C32.7,23.1,33,23.4,33.4,23.4z M35.6,30v-0.7h-1.8v-4.6h-2.6v0.7H33v3.9h-1.8V30H35.6z M39.5,30
				c0.5,0,0.9-0.4,0.9-0.9c0-0.5-0.4-0.9-0.9-0.9c-0.5,0-0.9,0.4-0.9,0.9C38.6,29.6,39,30,39.5,30z M142.4,66h0.8v-3.1
				c0-0.9,0.6-1.5,1.5-1.5c0.8,0,1.2,0.4,1.2,1.4V66h0.8v-3.4c0-1.3-0.6-2-1.8-2c-0.8,0-1.4,0.4-1.7,1h-0.1v-0.9h-0.8V66z
				 M50.9,71.3v1.4h-1.4v0.7h1.4v3c0,1.1,0.6,1.6,1.9,1.6c0.3,0,0.9,0,1,0v-0.7c-0.1,0-0.7,0-1,0c-0.7,0-1.2-0.3-1.2-0.9v-3h2.1
				v-0.7h-2.1v-1.4H50.9z M58,78.1c1.4,0,2.3-0.9,2.3-2.3V75c0-1.4-0.9-2.3-2.3-2.3c-1.4,0-2.3,0.9-2.3,2.3v0.8
				C55.7,77.2,56.6,78.1,58,78.1z M58,73.3c0.9,0,1.5,0.6,1.5,1.7v0.6c0,1-0.6,1.7-1.5,1.7s-1.5-0.6-1.5-1.7V75
				C56.5,74,57.1,73.3,58,73.3z M63.3,71.3v1.4h-1.4v0.7h1.4v3c0,1.1,0.6,1.6,1.9,1.6c0.3,0,0.9,0,1,0v-0.7c-0.1,0-0.7,0-1,0
				c-0.7,0-1.2-0.3-1.2-0.9v-3h2.1v-0.7h-2.1v-1.4H63.3z M69.8,78.1c0.8,0,1.3-0.3,1.6-0.9h0.1V78h0.8v-3.6c0-1.1-0.7-1.7-2-1.7
				c-1.1,0-1.9,0.6-2,1.4h0.8c0.1-0.5,0.6-0.7,1.2-0.7c0.7,0,1.1,0.4,1.1,1v0.5L70,74.9c-1.2,0.1-1.9,0.6-1.9,1.6
				C68.1,77.5,68.8,78.1,69.8,78.1z M70.1,77.4c-0.7,0-1.1-0.3-1.1-0.9c0-0.6,0.4-0.9,1.1-0.9l1.4-0.1v0.6
				C71.5,76.8,70.9,77.4,70.1,77.4z M78.9,78v-0.7h-1.7v-6.7h-2.6v0.7h1.8v6h-1.8V78H78.9z M142.4,90h0.8v-3.1
				c0-0.9,0.6-1.5,1.5-1.5c0.8,0,1.2,0.4,1.2,1.4V90h0.8v-3.4c0-1.3-0.6-2-1.8-2c-0.8,0-1.4,0.4-1.7,1h-0.1v-0.9h-0.8V90z M76.6,100
				l1.3,2h1L77,99.3l1.8-2.6h-0.9l-1.3,2h-0.1l-1.3-2h-1l1.8,2.6l-1.8,2.7h0.9L76.6,100L76.6,100z M100.4,95.3v1.4H99v0.7h1.4v3
				c0,1.1,0.6,1.6,1.9,1.6c0.3,0,0.9,0,1,0v-0.7c-0.1,0-0.7,0-1,0c-0.7,0-1.2-0.3-1.2-0.9v-3h2.1v-0.7h-2.1v-1.4H100.4z M107.5,95.4
				c0.4,0,0.7-0.3,0.7-0.7c0-0.4-0.3-0.7-0.7-0.7s-0.7,0.3-0.7,0.7C106.9,95.1,107.2,95.4,107.5,95.4z M109.8,102v-0.7H108v-4.6
				h-2.6v0.7h1.8v3.9h-1.8v0.7H109.8z M75.1,115.9c1,0,1.4-0.4,1.9-1.7l2-5.5h-0.9l-1.5,4.4h-0.1l-1.5-4.4h-0.9l1.9,5.3l-0.1,0.3
				c-0.2,0.6-0.5,0.8-1,0.8c-0.1,0-0.2,0-0.3,0v0.7C74.8,115.9,74.9,115.9,75.1,115.9z M100.4,107.3v1.4H99v0.7h1.4v3
				c0,1.1,0.6,1.6,1.9,1.6c0.3,0,0.9,0,1,0v-0.7c-0.1,0-0.7,0-1,0c-0.7,0-1.2-0.3-1.2-0.9v-3h2.1v-0.7h-2.1v-1.4H100.4z
				 M107.5,107.4c0.4,0,0.7-0.3,0.7-0.7c0-0.4-0.3-0.7-0.7-0.7s-0.7,0.3-0.7,0.7C106.9,107.1,107.2,107.4,107.5,107.4z M109.8,114
				v-0.7H108v-4.6h-2.6v0.7h1.8v3.9h-1.8v0.7H109.8z M101.3,124l1.3,2h1l-1.8-2.7l1.8-2.6h-0.9l-1.3,2h-0.1l-1.3-2h-1l1.8,2.6
				L99,126h0.9L101.3,124L101.3,124z M155.4,127.9c1,0,1.4-0.4,1.9-1.7l2-5.5h-0.9l-1.5,4.4h-0.1l-1.5-4.4h-0.9l1.9,5.3l-0.1,0.3
				c-0.2,0.6-0.5,0.8-1,0.8c-0.1,0-0.2,0-0.3,0v0.7C155.1,127.9,155.3,127.9,155.4,127.9z M100.4,131.3v1.4H99v0.7h1.4v3
				c0,1.1,0.6,1.6,1.9,1.6c0.3,0,0.9,0,1,0v-0.7c-0.1,0-0.7,0-1,0c-0.7,0-1.2-0.3-1.2-0.9v-3h2.1v-0.7h-2.1v-1.4H100.4z
				 M107.5,138.1c1.4,0,2.3-0.9,2.3-2.3V135c0-1.4-0.9-2.3-2.3-2.3c-1.4,0-2.3,0.9-2.3,2.3v0.8C105.2,137.2,106.1,138.1,107.5,138.1
				z M107.5,133.3c0.9,0,1.5,0.6,1.5,1.7v0.6c0,1-0.6,1.7-1.5,1.7c-0.9,0-1.5-0.6-1.5-1.7V135C106,134,106.5,133.3,107.5,133.3z
				 M112.7,131.3v1.4h-1.4v0.7h1.4v3c0,1.1,0.6,1.6,1.9,1.6c0.3,0,0.9,0,1,0v-0.7c-0.1,0-0.7,0-1,0c-0.7,0-1.2-0.3-1.2-0.9v-3h2.1
				v-0.7h-2.1v-1.4H112.7z M119.3,138.1c0.8,0,1.3-0.3,1.6-0.9h0.1v0.8h0.8v-3.6c0-1.1-0.7-1.7-2-1.7c-1.1,0-1.9,0.6-2,1.4h0.8
				c0.1-0.5,0.6-0.7,1.2-0.7c0.7,0,1.1,0.4,1.1,1v0.5l-1.5,0.1c-1.2,0.1-1.9,0.6-1.9,1.6C117.6,137.5,118.3,138.1,119.3,138.1z
				 M119.5,137.4c-0.7,0-1.1-0.3-1.1-0.9c0-0.6,0.4-0.9,1.1-0.9l1.4-0.1v0.6C120.9,136.8,120.3,137.4,119.5,137.4z M128.3,138v-0.7
				h-1.7v-6.7h-2.6v0.7h1.8v6h-1.8v0.7H128.3z M131.3,143.3v1.4h-1.4v0.7h1.4v3c0,1.1,0.6,1.6,1.9,1.6c0.3,0,0.9,0,1,0v-0.7
				c-0.1,0-0.7,0-1,0c-0.7,0-1.2-0.3-1.2-0.9v-3h2.1v-0.7h-2.1v-1.4H131.3z M138.4,150.1c1.4,0,2.3-0.9,2.3-2.3V147
				c0-1.4-0.9-2.3-2.3-2.3c-1.4,0-2.3,0.9-2.3,2.3v0.8C136.1,149.2,137,150.1,138.4,150.1z M138.4,145.3c0.9,0,1.5,0.6,1.5,1.7v0.6
				c0,1-0.6,1.7-1.5,1.7c-0.9,0-1.5-0.6-1.5-1.7V147C136.9,146,137.5,145.3,138.4,145.3z M143.6,143.3v1.4h-1.4v0.7h1.4v3
				c0,1.1,0.6,1.6,1.9,1.6c0.3,0,0.9,0,1,0v-0.7c-0.1,0-0.7,0-1,0c-0.7,0-1.2-0.3-1.2-0.9v-3h2.1v-0.7h-2.1v-1.4H143.6z
				 M150.2,150.1c0.8,0,1.3-0.3,1.6-0.9h0.1v0.8h0.8v-3.6c0-1.1-0.7-1.7-2-1.7c-1.1,0-1.9,0.6-2,1.4h0.8c0.1-0.5,0.6-0.7,1.2-0.7
				c0.7,0,1.1,0.4,1.1,1v0.5l-1.5,0.1c-1.2,0.1-1.9,0.6-1.9,1.6C148.5,149.5,149.2,150.1,150.2,150.1z M150.4,149.4
				c-0.7,0-1.1-0.3-1.1-0.9c0-0.6,0.4-0.9,1.1-0.9l1.4-0.1v0.6C151.8,148.8,151.2,149.4,150.4,149.4z M159.2,150v-0.7h-1.7v-6.7
				h-2.6v0.7h1.8v6h-1.8v0.7H159.2z M179.5,150h0.8v-3.1c0-0.9,0.6-1.5,1.5-1.5c0.8,0,1.2,0.4,1.2,1.4v3.2h0.8v-3.4
				c0-1.3-0.6-2-1.8-2c-0.8,0-1.4,0.4-1.7,1h-0.1v-0.9h-0.8V150z"/>
			<path class="st5" d="M45.7,23.4c0.4,0,0.7-0.3,0.7-0.7c0-0.4-0.3-0.7-0.7-0.7c-0.4,0-0.7,0.3-0.7,0.7
				C45,23.1,45.3,23.4,45.7,23.4z M48,30v-0.7h-1.8v-4.6h-2.6v0.7h1.8v3.9h-1.8V30H48z M49.6,30h0.8v-3.1c0-0.9,0.6-1.5,1.5-1.5
				c0.8,0,1.2,0.4,1.2,1.4V30H54v-3.4c0-1.3-0.6-2-1.8-2c-0.8,0-1.4,0.4-1.7,1h-0.1v-0.9h-0.8V30z M58.1,23.4c0.4,0,0.7-0.3,0.7-0.7
				c0-0.4-0.3-0.7-0.7-0.7c-0.4,0-0.7,0.3-0.7,0.7C57.4,23.1,57.7,23.4,58.1,23.4z M60.3,30v-0.7h-1.8v-4.6h-2.6v0.7h1.8v3.9h-1.8
				V30H60.3z M63.3,23.3v1.4h-1.4v0.7h1.4v3c0,1.1,0.6,1.6,1.9,1.6c0.3,0,0.9,0,1,0v-0.7c-0.1,0-0.7,0-1,0c-0.7,0-1.2-0.3-1.2-0.9
				v-3h2.1v-0.7h-2.1v-1.4H63.3z M50.9,51.1L50.9,51.1l-0.1-4.5H50V54h0.8v-1.9l0.7-0.7l1.8,2.6h1l-2.2-3.2l2.1-2.1h-1L50.9,51.1z
				 M59.4,52.6c-0.1,0.5-0.6,0.7-1.3,0.7c-0.9,0-1.5-0.6-1.5-1.6v-0.2h3.6v-0.5c0-1.5-0.8-2.4-2.2-2.4c-1.3,0-2.2,0.9-2.2,2.3v0.8
				c0,1.5,0.8,2.4,2.3,2.4c1.1,0,2-0.6,2.1-1.5H59.4z M58.1,49.3c0.9,0,1.4,0.6,1.4,1.6h-2.8C56.6,49.9,57.2,49.3,58.1,49.3z
				 M64,51.6c0-1.3,0.7-2.2,1.9-2.2c0.3,0,0.6,0.1,0.9,0.1v-0.9c-0.2-0.1-0.5-0.1-0.8-0.1c-1,0-1.7,0.5-1.9,1.5H64v-1.4h-2v0.7h1.2
				v4h-1.1V54h3.5v-0.7H64V51.6z M68.2,54H69v-3.1c0-0.9,0.6-1.5,1.5-1.5c0.8,0,1.2,0.4,1.2,1.4V54h0.8v-3.4c0-1.3-0.6-2-1.8-2
				c-0.8,0-1.4,0.4-1.7,1H69v-0.9h-0.8V54z M78,52.6c-0.1,0.5-0.6,0.7-1.3,0.7c-0.9,0-1.5-0.6-1.5-1.6v-0.2h3.6v-0.5
				c0-1.5-0.8-2.4-2.2-2.4c-1.3,0-2.2,0.9-2.2,2.3v0.8c0,1.5,0.8,2.4,2.3,2.4c1.1,0,2-0.6,2.1-1.5H78z M76.6,49.3
				c0.9,0,1.4,0.6,1.4,1.6h-2.8C75.2,49.9,75.7,49.3,76.6,49.3z M85,54v-0.7h-1.7v-6.7h-2.6v0.7h1.8v6h-1.8V54H85z M54.4,62.1
				c0-1-0.4-1.5-1.1-1.5c-0.5,0-1,0.3-1.1,0.8h-0.1c-0.1-0.5-0.5-0.8-1-0.8c-0.5,0-0.9,0.3-1,0.8H50v-0.7h-0.7V66H50v-3.6
				c0-0.7,0.3-1.1,0.8-1.1c0.4,0,0.7,0.3,0.7,1V66h0.7v-3.6c0-0.7,0.3-1.1,0.7-1.1c0.4,0,0.7,0.3,0.7,1V66h0.7V62.1z M58,66.1
				c1.4,0,2.3-0.9,2.3-2.3V63c0-1.4-0.9-2.3-2.3-2.3c-1.4,0-2.3,0.9-2.3,2.3v0.8C55.7,65.2,56.6,66.1,58,66.1z M58,61.3
				c0.9,0,1.5,0.6,1.5,1.7v0.6c0,1-0.6,1.7-1.5,1.7s-1.5-0.6-1.5-1.7V63C56.5,62,57.1,61.3,58,61.3z M62,66h0.8v-3.1
				c0-0.9,0.6-1.5,1.5-1.5c0.8,0,1.2,0.4,1.2,1.4V66h0.8v-3.4c0-1.3-0.6-2-1.8-2c-0.8,0-1.4,0.4-1.7,1h-0.1v-0.9H62V66z M69.5,59.3
				v1.4H68v0.7h1.4v3c0,1.1,0.6,1.6,1.9,1.6c0.3,0,0.9,0,1,0v-0.7c-0.1,0-0.7,0-1,0c-0.7,0-1.2-0.3-1.2-0.9v-3h2.1v-0.7h-2.1v-1.4
				H69.5z M78,64.6c-0.1,0.5-0.6,0.7-1.3,0.7c-0.9,0-1.5-0.6-1.5-1.6v-0.2h3.6v-0.5c0-1.5-0.8-2.4-2.2-2.4c-1.3,0-2.2,0.9-2.2,2.3
				v0.8c0,1.5,0.8,2.4,2.3,2.4c1.1,0,2-0.6,2.1-1.5H78z M76.6,61.3c0.9,0,1.4,0.6,1.4,1.6h-2.8C75.2,61.9,75.7,61.3,76.6,61.3z
				 M85.3,67.5v-0.7h-5.1v0.7H85.3z M91.1,62.4c-0.1-1.1-0.9-1.8-2.1-1.8c-1.4,0-2.3,0.9-2.3,2.4v0.7c0,1.5,0.8,2.4,2.3,2.4
				c1.2,0,2-0.7,2.1-1.7h-0.8c-0.1,0.6-0.6,1-1.3,1c-0.9,0-1.4-0.6-1.4-1.8v-0.5c0-1.1,0.5-1.8,1.4-1.8c0.7,0,1.2,0.4,1.3,1H91.1z
				 M94.6,66.1c0.8,0,1.3-0.3,1.6-0.9h0.1V66H97v-3.6c0-1.1-0.7-1.7-2-1.7c-1.1,0-1.9,0.6-2,1.4h0.8c0.1-0.5,0.6-0.7,1.2-0.7
				c0.7,0,1.1,0.4,1.1,1v0.5l-1.5,0.1c-1.2,0.1-1.9,0.6-1.9,1.6C92.9,65.5,93.5,66.1,94.6,66.1z M94.8,65.4c-0.7,0-1.1-0.3-1.1-0.9
				c0-0.6,0.4-0.9,1.1-0.9l1.4-0.1v0.6C96.2,64.8,95.6,65.4,94.8,65.4z M101.1,63.6c0-1.3,0.7-2.2,1.9-2.2c0.3,0,0.6,0.1,0.9,0.1
				v-0.9c-0.2-0.1-0.5-0.1-0.8-0.1c-1,0-1.7,0.5-1.9,1.5h-0.1v-1.4h-2v0.7h1.2v4h-1.1V66h3.5v-0.7h-1.6V63.6z M109.8,66v-0.7H108
				v-6.7h-2.6v0.7h1.8v6h-1.8V66H109.8z M113.6,66.1c1.4,0,2.3-0.9,2.3-2.3V63c0-1.4-0.9-2.3-2.3-2.3c-1.4,0-2.3,0.9-2.3,2.3v0.8
				C111.3,65.2,112.2,66.1,113.6,66.1z M113.6,61.3c0.9,0,1.5,0.6,1.5,1.7v0.6c0,1-0.6,1.7-1.5,1.7c-0.9,0-1.5-0.6-1.5-1.7V63
				C112.2,62,112.7,61.3,113.6,61.3z M122.3,67.5v-0.7h-5.1v0.7H122.3z M126.3,60.6c-0.8,0-1.3,0.3-1.6,0.9h-0.1v-0.8h-0.8v7.1h0.8
				v-2.6h0.1c0.2,0.6,0.8,0.9,1.6,0.9c1.2,0,2-0.9,2-2.2v-1C128.4,61.5,127.6,60.6,126.3,60.6z M126.1,61.4c0.9,0,1.4,0.6,1.4,1.6
				v0.8c0,1-0.6,1.6-1.4,1.6c-0.9,0-1.4-0.6-1.4-1.6V63C124.7,62,125.2,61.4,126.1,61.4z M132.3,59.4c0.4,0,0.7-0.3,0.7-0.7
				c0-0.4-0.3-0.7-0.7-0.7c-0.4,0-0.7,0.3-0.7,0.7C131.6,59.1,131.9,59.4,132.3,59.4z M134.5,66v-0.7h-1.8v-4.6h-2.6v0.7h1.8v3.9
				h-1.8V66H134.5z M119.6,99.6c0-1.3,0.7-2.2,1.9-2.2c0.3,0,0.6,0.1,0.9,0.1v-0.9c-0.2-0.1-0.5-0.1-0.8-0.1c-1,0-1.7,0.5-1.9,1.5
				h-0.1v-1.4h-2v0.7h1.2v4h-1.1v0.7h3.5v-0.7h-1.6V99.6z M125.5,102.1c0.8,0,1.3-0.3,1.6-0.9h0.1v0.8h0.8v-3.6c0-1.1-0.7-1.7-2-1.7
				c-1.1,0-1.9,0.6-2,1.4h0.8c0.1-0.5,0.6-0.7,1.2-0.7c0.7,0,1.1,0.4,1.1,1v0.5l-1.5,0.1c-1.2,0.1-1.9,0.6-1.9,1.6
				C123.8,101.5,124.4,102.1,125.5,102.1z M125.7,101.4c-0.7,0-1.1-0.3-1.1-0.9c0-0.6,0.4-0.9,1.1-0.9l1.4-0.1v0.6
				C127.1,100.8,126.5,101.4,125.7,101.4z M130,102h0.8v-3.1c0-0.9,0.6-1.5,1.5-1.5c0.8,0,1.2,0.4,1.2,1.4v3.2h0.8v-3.4
				c0-1.3-0.6-2-1.8-2c-0.8,0-1.4,0.4-1.7,1h-0.1v-0.9H130V102z M138,102.1c0.8,0,1.3-0.3,1.6-0.9h0.1v0.8h0.8v-7.4h-0.8v2.9h-0.1
				c-0.2-0.6-0.8-0.9-1.6-0.9c-1.2,0-2,0.9-2,2.2v1C136,101.2,136.8,102.1,138,102.1z M138.3,101.3c-0.9,0-1.4-0.6-1.4-1.6V99
				c0-1,0.6-1.6,1.4-1.6c0.9,0,1.4,0.6,1.4,1.6v0.8C139.7,100.7,139.1,101.3,138.3,101.3z M144.5,102.1c1.4,0,2.3-0.9,2.3-2.3V99
				c0-1.4-0.9-2.3-2.3-2.3c-1.4,0-2.3,0.9-2.3,2.3v0.8C142.2,101.2,143.1,102.1,144.5,102.1z M144.5,97.3c0.9,0,1.5,0.6,1.5,1.7v0.6
				c0,1-0.6,1.7-1.5,1.7c-0.9,0-1.5-0.6-1.5-1.7V99C143.1,98,143.6,97.3,144.5,97.3z M153.3,98.1c0-1-0.4-1.5-1.1-1.5
				c-0.5,0-1,0.3-1.1,0.8H151c-0.1-0.5-0.5-0.8-1-0.8s-0.9,0.3-1,0.8h-0.1v-0.7h-0.7v5.3h0.7v-3.6c0-0.7,0.3-1.1,0.8-1.1
				c0.4,0,0.7,0.3,0.7,1v3.7h0.7v-3.6c0-0.7,0.3-1.1,0.7-1.1c0.4,0,0.7,0.3,0.7,1v3.7h0.7V98.1z M119.6,111.6c0-1.3,0.7-2.2,1.9-2.2
				c0.3,0,0.6,0.1,0.9,0.1v-0.9c-0.2-0.1-0.5-0.1-0.8-0.1c-1,0-1.7,0.5-1.9,1.5h-0.1v-1.4h-2v0.7h1.2v4h-1.1v0.7h3.5v-0.7h-1.6
				V111.6z M125.5,114.1c0.8,0,1.3-0.3,1.6-0.9h0.1v0.8h0.8v-3.6c0-1.1-0.7-1.7-2-1.7c-1.1,0-1.9,0.6-2,1.4h0.8
				c0.1-0.5,0.6-0.7,1.2-0.7c0.7,0,1.1,0.4,1.1,1v0.5l-1.5,0.1c-1.2,0.1-1.9,0.6-1.9,1.6C123.8,113.5,124.4,114.1,125.5,114.1z
				 M125.7,113.4c-0.7,0-1.1-0.3-1.1-0.9c0-0.6,0.4-0.9,1.1-0.9l1.4-0.1v0.6C127.1,112.8,126.5,113.4,125.7,113.4z M130,114h0.8
				v-3.1c0-0.9,0.6-1.5,1.5-1.5c0.8,0,1.2,0.4,1.2,1.4v3.2h0.8v-3.4c0-1.3-0.6-2-1.8-2c-0.8,0-1.4,0.4-1.7,1h-0.1v-0.9H130V114z
				 M138,114.1c0.8,0,1.3-0.3,1.6-0.9h0.1v0.8h0.8v-7.4h-0.8v2.9h-0.1c-0.2-0.6-0.8-0.9-1.6-0.9c-1.2,0-2,0.9-2,2.2v1
				C136,113.2,136.8,114.1,138,114.1z M138.3,113.3c-0.9,0-1.4-0.6-1.4-1.6V111c0-1,0.6-1.6,1.4-1.6c0.9,0,1.4,0.6,1.4,1.6v0.8
				C139.7,112.7,139.1,113.3,138.3,113.3z M144.5,114.1c1.4,0,2.3-0.9,2.3-2.3V111c0-1.4-0.9-2.3-2.3-2.3c-1.4,0-2.3,0.9-2.3,2.3
				v0.8C142.2,113.2,143.1,114.1,144.5,114.1z M144.5,109.3c0.9,0,1.5,0.6,1.5,1.7v0.7c0,1-0.6,1.7-1.5,1.7c-0.9,0-1.5-0.6-1.5-1.7
				V111C143.1,110,143.6,109.3,144.5,109.3z M153.3,110.1c0-1-0.4-1.5-1.1-1.5c-0.5,0-1,0.3-1.1,0.8H151c-0.1-0.5-0.5-0.8-1-0.8
				s-0.9,0.3-1,0.8h-0.1v-0.7h-0.7v5.3h0.7v-3.6c0-0.7,0.3-1.1,0.8-1.1c0.4,0,0.7,0.3,0.7,1v3.7h0.7v-3.6c0-0.7,0.3-1.1,0.7-1.1
				c0.4,0,0.7,0.3,0.7,1v3.7h0.7V110.1z"/>
			<path class="st6" d="M101.3,78.2c1.5,0,2.4-1.3,2.4-3.7c0-2.4-0.8-3.7-2.4-3.7c-1.5,0-2.4,1.3-2.4,3.7
				C98.9,76.9,99.7,78.2,101.3,78.2z M99.8,74.5c0-1.9,0.5-2.9,1.5-2.9c0.7,0,1.1,0.4,1.4,1.3l-2.8,2.4C99.8,75,99.8,74.8,99.8,74.5
				z M101.3,77.4c-0.7,0-1.1-0.4-1.3-1.3l2.8-2.4c0,0.2,0,0.5,0,0.8C102.8,76.4,102.3,77.4,101.3,77.4z M129.9,120.9L129.9,120.9
				l0.8,0v0c0-0.8,0.5-1.4,1.3-1.4c0.8,0,1.4,0.5,1.4,1.3c0,0.6-0.2,0.9-1.1,1.9l-2.4,2.7v0.6h4.5v-0.8h-3.2v-0.1l1.7-1.8
				c1.1-1.2,1.5-1.8,1.5-2.5c0-1.2-0.9-2-2.2-2C130.9,118.8,129.9,119.7,129.9,120.9z M185.6,120.9L185.6,120.9l0.8,0v0
				c0-0.8,0.5-1.4,1.3-1.4c0.8,0,1.4,0.5,1.4,1.3c0,0.6-0.2,0.9-1.1,1.9l-2.4,2.7v0.6h4.5v-0.8h-3.2v-0.1l1.7-1.8
				c1.1-1.2,1.5-1.8,1.5-2.5c0-1.2-0.9-2-2.2-2C186.5,118.8,185.6,119.7,185.6,120.9z M221.4,126v-0.8h-2V119h-0.8l-2.1,1.4v0.9
				l2-1.3h0.1v5.3h-2.1v0.8H221.4z M224.9,126c0.5,0,0.9-0.4,0.9-0.9c0-0.5-0.4-0.9-0.9-0.9c-0.5,0-0.9,0.4-0.9,0.9
				C224,125.6,224.4,126,224.9,126z M231.1,126.2c1.5,0,2.4-1.3,2.4-3.7c0-2.4-0.9-3.7-2.4-3.7c-1.5,0-2.4,1.3-2.4,3.7
				C228.7,124.9,229.6,126.2,231.1,126.2z M229.6,122.5c0-1.9,0.5-2.9,1.5-2.9c0.7,0,1.1,0.4,1.4,1.3l-2.8,2.4
				C229.6,123,229.6,122.8,229.6,122.5z M231.1,125.4c-0.7,0-1.1-0.4-1.3-1.3l2.8-2.4c0,0.2,0,0.5,0,0.8
				C232.6,124.4,232.1,125.4,231.1,125.4z M159.6,138v-0.8h-2V131h-0.8l-2.1,1.4v0.9l2-1.3h0.1v5.3h-2.1v0.8H159.6z M95.9,150h0.8
				v-1.5h1.1v-0.8h-1.1v-2h-0.8v2h-2.3v-0.1L96,143h-0.9l-2.4,4.9v0.7h3.2V150z M101.3,150c0.5,0,0.9-0.4,0.9-0.9
				c0-0.5-0.4-0.9-0.9-0.9c-0.5,0-0.9,0.4-0.9,0.9C100.4,149.6,100.8,150,101.3,150z M107.5,150.2c1.5,0,2.4-1.3,2.4-3.7
				c0-2.4-0.8-3.7-2.4-3.7c-1.5,0-2.4,1.3-2.4,3.7C105.1,148.9,105.9,150.2,107.5,150.2z M105.9,146.5c0-1.9,0.5-2.9,1.5-2.9
				c0.7,0,1.1,0.4,1.4,1.3l-2.8,2.4C105.9,147,105.9,146.8,105.9,146.5z M107.5,149.4c-0.7,0-1.1-0.4-1.3-1.3l2.8-2.4
				c0,0.2,0,0.5,0,0.8C109,148.4,108.5,149.4,107.5,149.4z"/>
		</g>
	</g>
</g>
</svg>
