<svg width="919" height="242" xmlns="http://www.w3.org/2000/svg" xmlns:xlink="http://www.w3.org/1999/xlink" xml:space="preserve" overflow="hidden"><defs><clipPath id="clip0"><rect x="1783" y="1081" width="919" height="242"/></clipPath></defs><g clip-path="url(#clip0)" transform="translate(-1783 -1081)"><path d="M1841 1224.25 2547.99 1224.25 2547.99 1251.75 1841 1251.75ZM1841 1279.25C1818.22 1279.25 1799.75 1260.78 1799.75 1238 1799.75 1215.22 1818.22 1196.75 1841 1196.75 1863.78 1196.75 1882.25 1215.22 1882.25 1238 1882.25 1260.78 1863.78 1279.25 1841 1279.25ZM2534.24 1196.75 2616.74 1238 2534.24 1279.25Z"/><path d="M1866.29 1131.91C1864.02 1131.91 1862.06 1133.01 1860.39 1135.21 1858.73 1137.41 1857.3 1140.82 1856.1 1145.42 1854.9 1150.03 1854.3 1154.02 1854.3 1157.4 1854.3 1159.94 1854.71 1161.84 1855.53 1163.09 1856.36 1164.35 1857.66 1164.98 1859.44 1164.98 1861.74 1164.98 1863.73 1163.86 1865.42 1161.63 1867.11 1159.4 1868.52 1156.03 1869.66 1151.52 1870.79 1147.01 1871.36 1143.09 1871.36 1139.77 1871.36 1137.07 1870.95 1135.08 1870.12 1133.81 1869.3 1132.54 1868.02 1131.91 1866.29 1131.91ZM1867.22 1127.69C1870.57 1127.69 1873.38 1128.31 1875.65 1129.54 1877.92 1130.77 1879.6 1132.47 1880.7 1134.66 1881.79 1136.85 1882.34 1139.39 1882.34 1142.28 1882.34 1145.85 1881.75 1149.43 1880.56 1153.02 1879.37 1156.61 1877.73 1159.63 1875.63 1162.06 1873.54 1164.49 1871.06 1166.29 1868.2 1167.45 1865.33 1168.61 1862.09 1169.19 1858.47 1169.19 1855.5 1169.19 1852.88 1168.66 1850.63 1167.59 1848.37 1166.52 1846.6 1164.9 1845.32 1162.73 1844.04 1160.55 1843.39 1157.9 1843.39 1154.76 1843.39 1151.58 1843.89 1148.23 1844.89 1144.73 1845.89 1141.23 1847.45 1138.15 1849.55 1135.49 1851.66 1132.83 1854.21 1130.87 1857.19 1129.6 1860.18 1128.33 1863.52 1127.69 1867.22 1127.69ZM1809.69 1127.69C1811.93 1127.69 1813.72 1128.32 1815.06 1129.58 1816.39 1130.83 1817.06 1132.49 1817.06 1134.54 1817.06 1135.27 1816.92 1136.19 1816.62 1137.3L1816.94 1137.42C1819.21 1134.23 1821.59 1131.81 1824.07 1130.16 1826.56 1128.52 1829.32 1127.69 1832.34 1127.69 1834.13 1127.69 1836.02 1127.95 1838.02 1128.46L1835.63 1139.36 1828.37 1139.36C1828.37 1137.55 1828.17 1136.3 1827.78 1135.59 1827.39 1134.89 1826.72 1134.54 1825.78 1134.54 1825.05 1134.54 1824.25 1134.8 1823.39 1135.31 1822.52 1135.82 1821.49 1136.82 1820.29 1138.31 1819.08 1139.8 1818.18 1141.21 1817.57 1142.57 1816.96 1143.92 1816.43 1145.65 1815.97 1147.75L1811.39 1168.54 1799.76 1168.54 1806.28 1140.38C1806.69 1138.62 1806.89 1137.28 1806.89 1136.36 1806.89 1135.47 1806.74 1134.78 1806.45 1134.3 1806.15 1133.81 1805.63 1133.57 1804.91 1133.57 1804.07 1133.57 1803.16 1133.95 1802.19 1134.7 1801.22 1135.46 1800.08 1136.58 1798.79 1138.07L1795.87 1135.15C1798.57 1132.39 1800.97 1130.46 1803.06 1129.35 1805.16 1128.25 1807.36 1127.69 1809.69 1127.69Z" fill-rule="evenodd"/><text fill="#000000" fill-opacity="0" font-family="Arial,Arial_MSFontService,sans-serif" font-size="41.5" x="1795.87" y="1164">𝒓𝒐</text><path d="M1876.6 1101.93 1886.77 1110.72 1886.77 1113.07 1876.6 1121.87 1874.45 1119.44 1880.94 1113.8 1864.4 1113.8 1856.21 1113.8 1849.36 1113.8 1840.08 1113.8 1834.33 1113.8 1825.05 1113.8 1819.28 1113.8 1810.01 1113.8 1794.96 1113.8 1794.96 1109.99 1810.01 1109.99 1819.28 1109.99 1825.05 1109.99 1834.33 1109.99 1840.08 1109.99 1849.36 1109.99 1856.21 1109.99 1864.4 1109.99 1880.94 1109.99 1874.45 1104.36Z" fill-rule="evenodd"/><path d="M2579.79 1139.47C2577.28 1139.47 2575.05 1140.73 2573.1 1143.26 2571.16 1145.78 2569.59 1149.18 2568.4 1153.45 2567.21 1157.72 2566.62 1161.54 2566.62 1164.92 2566.62 1166.89 2566.91 1168.36 2567.49 1169.33 2568.07 1170.31 2568.97 1170.79 2570.19 1170.79 2571.97 1170.79 2573.79 1169.92 2575.64 1168.18 2577.49 1166.44 2578.98 1164.39 2580.12 1162.04 2581.25 1159.69 2582.26 1156.47 2583.16 1152.39L2583.48 1150.89C2583.91 1148.9 2584.13 1146.91 2584.13 1144.94 2584.13 1143.13 2583.79 1141.76 2583.11 1140.84 2582.44 1139.93 2581.33 1139.47 2579.79 1139.47ZM2522.09 1135.25C2524.34 1135.25 2526.13 1135.88 2527.46 1137.14 2528.8 1138.39 2529.47 1140.05 2529.47 1142.1 2529.47 1142.83 2529.32 1143.75 2529.02 1144.86L2529.35 1144.98C2531.62 1141.79 2533.99 1139.37 2536.48 1137.72 2538.97 1136.08 2541.72 1135.25 2544.75 1135.25 2546.53 1135.25 2548.42 1135.51 2550.42 1136.02L2548.03 1146.92 2540.78 1146.92C2540.78 1145.11 2540.58 1143.86 2540.19 1143.15 2539.8 1142.45 2539.13 1142.1 2538.18 1142.1 2537.45 1142.1 2536.66 1142.36 2535.79 1142.87 2534.93 1143.38 2533.89 1144.38 2532.69 1145.87 2531.49 1147.36 2530.58 1148.77 2529.98 1150.12 2529.37 1151.48 2528.83 1153.2 2528.37 1155.31L2523.8 1176.1 2512.16 1176.1 2518.69 1147.94C2519.09 1146.18 2519.3 1144.84 2519.3 1143.92 2519.3 1143.03 2519.15 1142.34 2518.85 1141.86 2518.55 1141.37 2518.04 1141.13 2517.31 1141.13 2516.47 1141.13 2515.57 1141.51 2514.6 1142.26 2513.62 1143.02 2512.49 1144.14 2511.19 1145.63L2508.27 1142.71C2510.98 1139.95 2513.37 1138.02 2515.47 1136.91 2517.56 1135.81 2519.77 1135.25 2522.09 1135.25ZM2597.18 1118.07 2601.76 1118.07 2591.5 1163.46C2591.1 1165.24 2590.9 1166.78 2590.9 1168.08 2590.9 1168.97 2591.04 1169.66 2591.34 1170.15 2591.64 1170.63 2592.15 1170.87 2592.88 1170.87 2593.72 1170.87 2594.62 1170.5 2595.6 1169.74 2596.57 1168.98 2597.7 1167.86 2599 1166.38L2601.92 1169.29C2599.08 1172.13 2596.64 1174.08 2594.58 1175.15 2592.53 1176.22 2590.37 1176.75 2588.1 1176.75 2585.83 1176.75 2584.03 1176.12 2582.71 1174.87 2581.39 1173.61 2580.72 1171.96 2580.72 1169.9 2580.72 1169.23 2580.8 1168.58 2580.97 1167.96L2580.44 1167.84C2577.87 1170.94 2575.48 1173.21 2573.25 1174.62 2571.02 1176.04 2568.35 1176.75 2565.24 1176.75 2562.19 1176.75 2559.82 1175.64 2558.13 1173.43 2556.44 1171.21 2555.6 1168.01 2555.6 1163.82 2555.6 1160.18 2556.12 1156.56 2557.18 1152.96 2558.23 1149.37 2559.74 1146.27 2561.72 1143.66 2563.69 1141.05 2566.17 1139 2569.15 1137.5 2572.14 1136 2575.51 1135.25 2579.26 1135.25 2581.67 1135.25 2583.99 1135.67 2586.24 1136.51L2587.61 1130.31C2587.78 1129.63 2587.96 1128.66 2588.18 1127.39 2588.4 1126.12 2588.5 1125.16 2588.5 1124.51 2588.5 1123.92 2588.44 1123.45 2588.32 1123.11 2588.2 1122.78 2588.02 1122.5 2587.78 1122.28 2587.53 1122.07 2587.21 1121.9 2586.8 1121.78 2586.4 1121.65 2585.6 1121.51 2584.41 1121.35L2585.06 1118.72Z" fill-rule="evenodd"/><text fill="#000000" fill-opacity="0" font-family="Arial,Arial_MSFontService,sans-serif" font-size="58.6836" x="2508.27" y="1169.42">𝒓𝒅</text><path d="M2594.73 1092.42 2604.91 1101.21 2604.91 1103.56 2594.73 1112.36 2592.59 1109.92 2599.07 1104.29 2582.53 1104.29 2574.35 1104.29 2569.84 1104.29 2558.22 1104.29 2557.12 1104.29 2545.52 1104.29 2544.4 1104.29 2532.8 1104.29 2531.68 1104.29 2520.08 1104.29 2507.36 1104.29 2507.36 1100.48 2520.08 1100.48 2531.68 1100.48 2532.8 1100.48 2544.4 1100.48 2545.52 1100.48 2557.12 1100.48 2558.22 1100.48 2569.84 1100.48 2574.35 1100.48 2582.53 1100.48 2599.07 1100.48 2592.59 1094.85Z" fill-rule="evenodd"/></g></svg>